<?xml version="1.0" encoding="UTF-8"?>
<svg width="646px" height="532px" viewBox="0 0 646 532" version="1.1" xmlns="http://www.w3.org/2000/svg" xmlns:xlink="http://www.w3.org/1999/xlink">
    <title>ic_set</title>
    <defs>
        <path d="M8,1 C8.33626654,1 8.64466131,1.16759227 8.80193431,1.40583265 L14.0364306,7.2886121 C14.2258536,7.47844737 14.3333333,7.73038309 14.3333333,8 L14.3333333,14 C14.3333333,14.5522847 13.8856181,15 13.3333333,15 L10.647469,14.9994467 L10.5504616,14.9932889 C10.0907772,14.9398973 9.72676936,14.5758895 9.67170511,14.0969451 L9.66666667,14 L9.66666667,10.6666667 C9.66666667,10.4971112 9.53920874,10.3549412 9.39188307,10.3372652 L9.33333333,10.3333333 L6.66666667,10.3333333 C6.49711117,10.3333333 6.35494123,10.4607913 6.3372652,10.6081169 L6.33333333,10.6666667 L6.33333333,14 C6.33333333,14.5089402 5.95136023,14.9350031 5.43027843,14.9949616 L5.33333333,15 L2.66666667,15 C2.11438192,15 1.66666667,14.5522847 1.66666667,14 L1.66666667,8 C1.66666667,7.76503395 1.74842272,7.54237018 1.88874239,7.37064538 L7.17080889,1.4409141 C7.35533869,1.16759227 7.66373346,1 8,1 Z M8,1.66666667 C7.8876235,1.66666667 7.78519411,1.7223303 7.69608266,1.84902962 L2.396878,7.80411275 C2.35592926,7.86026916 2.33333333,7.9280766 2.33333333,8 L2.33333333,14 C2.33333333,14.1840949 2.48257175,14.3333333 2.66666667,14.3333333 L5.31413566,14.3338866 L5.37262314,14.3310741 C5.53920874,14.3117254 5.66666667,14.1695555 5.66666667,14 L5.66721995,10.647469 L5.67337773,10.5504616 C5.73166356,10.0486398 6.15772646,9.66666667 6.66666667,9.66666667 L9.35253101,9.66721995 L9.44953836,9.67337773 C9.95136023,9.73166356 10.3333333,10.1577265 10.3333333,10.6666667 L10.33278,13.9808023 L10.3355926,14.0392898 C10.3532965,14.1917145 10.4749521,14.3133702 10.6081169,14.3294015 L10.6666667,14.3333333 L13.3333333,14.3333333 C13.5174282,14.3333333 13.6666667,14.1840949 13.6666667,14 L13.6666667,8 C13.6666667,7.92773604 13.6438726,7.85985333 13.5940063,7.79435981 L8.27666054,1.81394817 C8.21480589,1.7223303 8.1123765,1.66666667 8,1.66666667 Z" id="path-1"></path>
        <path d="M16,3.5 C16.2454599,3.5 16.4496084,3.67687516 16.4919443,3.91012437 L16.5,4 L16.5,5.5 L19,5.5 C19.7796961,5.5 20.4204487,6.09488808 20.4931334,6.85553999 L20.5,7 L20.5,19 C20.5,19.8284271 19.8284271,20.5 19,20.5 L19,20.5 L5,20.5 C4.17157288,20.5 3.5,19.8284271 3.5,19 L3.5,19 L3.5,7 C3.5,6.17157288 4.17157288,5.5 5,5.5 L5,5.5 L7.5,5.5 L7.5,4 C7.5,3.72385763 7.72385763,3.5 8,3.5 C8.24545989,3.5 8.44960837,3.67687516 8.49194433,3.91012437 L8.5,4 L8.5,5.5 L15.5,5.5 L15.5,4 C15.5,3.72385763 15.7238576,3.5 16,3.5 Z M19.5,10.5 L4.5,10.5 L4.5,19 C4.5,19.2454599 4.67687516,19.4496084 4.91012437,19.4919443 L5,19.5 L19,19.5 C19.2761424,19.5 19.5,19.2761424 19.5,19 L19.5,19 L19.5,10.5 Z M7.5,6.5 L5,6.5 C4.72385763,6.5 4.5,6.72385763 4.5,7 L4.5,7 L4.5,9.5 L19.5,9.5 L19.5,7 C19.5,6.75454011 19.3231248,6.55039163 19.0898756,6.50805567 L19,6.5 L16.5,6.5 L16.5,7 C16.5,7.27614237 16.2761424,7.5 16,7.5 C15.7545401,7.5 15.5503916,7.32312484 15.5080557,7.08987563 L15.5,7 L15.5,6.5 L8.5,6.5 L8.5,7 C8.5,7.27614237 8.27614237,7.5 8,7.5 C7.75454011,7.5 7.55039163,7.32312484 7.50805567,7.08987563 L7.5,7 L7.5,6.5 Z" id="path-3"></path>
        <linearGradient x1="50%" y1="0%" x2="50%" y2="100%" id="linearGradient-5">
            <stop stop-color="#333333" offset="0%"></stop>
            <stop stop-color="#333333" offset="100%"></stop>
        </linearGradient>
        <path d="M5.42527328,11.6530766 C3.68382206,13.5112194 3.72847465,16.4099915 5.55923106,18.2147687 C7.38363068,20.0132793 10.3100798,20.0632379 12.1957043,18.3646446 L12.3547304,18.2147687 L18.532457,12.1247066 C18.7030502,11.9565342 18.9796365,11.9565342 19.1502297,12.1247066 C19.3018681,12.2741932 19.3187168,12.506239 19.2007758,12.6740721 L19.1502297,12.7337128 L12.972503,18.8237749 C10.7547913,21.0100163 7.15917014,21.0100163 4.9414584,18.8237749 C2.77783719,16.6908564 2.72506594,13.2650348 4.78314465,11.0690479 L4.9414584,10.9066942 L12.3547304,3.5986198 C13.8900693,2.08506802 16.3793455,2.08506802 17.9146844,3.5986198 C19.4020439,5.06487308 19.4485239,7.4136702 18.0541243,8.93508247 L17.9146844,9.07967563 L10.5014124,16.3877501 C9.64844633,17.2286122 8.26551511,17.2286122 7.41254906,16.3877501 C6.59666848,15.5834472 6.56119542,14.301142 7.30612985,13.4552737 L7.41254906,13.342719 L13.5902757,7.25265702 C13.7608689,7.0844846 14.0374552,7.0844846 14.2080484,7.25265702 C14.3596868,7.40214361 14.3765355,7.63418937 14.2585945,7.80202245 L14.2080484,7.86166322 L8.03032172,13.9517253 C7.51854209,14.4562425 7.51854209,15.2742266 8.03032172,15.7787439 C8.51011513,16.2517288 9.26938235,16.2812904 9.78410998,15.8674285 L9.88363972,15.7787439 L17.2969117,8.47066942 C18.4910642,7.29346249 18.4910642,5.38483294 17.2969117,4.207626 C16.1454075,3.07246217 14.3040023,3.03192061 13.1032194,4.0860013 L12.972503,4.207626 L5.55923106,11.5157004 L5.42527328,11.6530766 Z" id="path-6"></path>
        <path d="M20,3.5 C20.8284271,3.5 21.5,4.17157288 21.5,5 L21.5,19 C21.5,19.8284271 20.8284271,20.5 20,20.5 L4,20.5 C3.17157288,20.5 2.5,19.8284271 2.5,19 L2.5,5 C2.5,4.17157288 3.17157288,3.5 4,3.5 L20,3.5 Z M20,4.5 L4,4.5 C3.72385763,4.5 3.5,4.72385763 3.5,5 L3.5,19 C3.5,19.2761424 3.72385763,19.5 4,19.5 L20,19.5 C20.2761424,19.5 20.5,19.2761424 20.5,19 L20.5,5 C20.5,4.72385763 20.2761424,4.5 20,4.5 Z M5.64644661,7.64644661 C5.84170876,7.45118446 6.15829124,7.45118446 6.35355339,7.64644661 L6.35355339,7.64644661 L12,13.293 L17.6464466,7.64644661 C17.8417088,7.45118446 18.1582912,7.45118446 18.3535534,7.64644661 C18.5488155,7.84170876 18.5488155,8.15829124 18.3535534,8.35355339 L14.707,12 L18.3535534,15.6464466 C18.5271197,15.820013 18.5464049,16.0894374 18.4114088,16.2843055 L18.3535534,16.3535534 C18.1582912,16.5488155 17.8417088,16.5488155 17.6464466,16.3535534 L17.6464466,16.3535534 L14,12.707 L12.3535534,14.3535534 C12.288466,14.4186408 12.2098986,14.4620324 12.1268378,14.4837282 L12.0426121,14.498192 L12.0426121,14.498192 L11.9573879,14.498192 C11.8439775,14.4885494 11.7332298,14.4403366 11.6464466,14.3535534 L11.6464466,14.3535534 L10,12.707 L6.35355339,16.3535534 C6.15829124,16.5488155 5.84170876,16.5488155 5.64644661,16.3535534 C5.45118446,16.1582912 5.45118446,15.8417088 5.64644661,15.6464466 L9.293,12 L5.64644661,8.35355339 C5.47288026,8.17998704 5.45359511,7.91056264 5.58859116,7.7156945 Z" id="path-8"></path>
        <path d="M14.8947368,2 C15.5051568,2 16,2.5925643 16,3.32352941 L16,15.6764706 C16,16.4074357 15.5051568,17 14.8947368,17 L3.10526316,17 C2.49484317,17 2,16.4074357 2,15.6764706 L2,3.32352941 C2,2.5925643 2.49484317,2 3.10526316,2 L14.8947368,2 Z M14.6470588,3 L3.35294118,3 C3.15801715,3 3,3.19400994 3,3.43333333 L3,15.5666667 C3,15.8059901 3.15801715,16 3.35294118,16 L14.6470588,16 C14.8419829,16 15,15.8059901 15,15.5666667 L15,3.43333333 C15,3.19400994 14.8419829,3 14.6470588,3 Z M6,5.5 C6.27614237,5.5 6.5,5.72385763 6.5,6 L6.5,13 C6.5,13.2761424 6.27614237,13.5 6,13.5 C5.72385763,13.5 5.5,13.2761424 5.5,13 L5.5,6 C5.5,5.72385763 5.72385763,5.5 6,5.5 Z M9,5.5 C9.27614237,5.5 9.5,5.72385763 9.5,6 L9.5,13 C9.5,13.2761424 9.27614237,13.5 9,13.5 C8.72385763,13.5 8.5,13.2761424 8.5,13 L8.5,6 C8.5,5.72385763 8.72385763,5.5 9,5.5 Z M12,5.5 C12.2761424,5.5 12.5,5.72385763 12.5,6 L12.5,13 C12.5,13.2761424 12.2761424,13.5 12,13.5 C11.7238576,13.5 11.5,13.2761424 11.5,13 L11.5,6 C11.5,5.72385763 11.7238576,5.5 12,5.5 Z M0.5,2 L17.5,2 C17.7761424,2 18,2.22385763 18,2.5 C18,2.77614237 17.7761424,3 17.5,3 L0.5,3 C0.223857625,3 3.38176876e-17,2.77614237 0,2.5 C-3.38176876e-17,2.22385763 0.223857625,2 0.5,2 Z M5.5,0 L12.5,0 C12.7761424,-5.07265313e-17 13,0.223857625 13,0.5 C13,0.776142375 12.7761424,1 12.5,1 L5.5,1 C5.22385763,1 5,0.776142375 5,0.5 C5,0.223857625 5.22385763,5.07265313e-17 5.5,0 Z" id="path-10"></path>
        <path d="M20,3.5 C20.8284271,3.5 21.5,4.17157288 21.5,5 L21.5,16 C21.5,16.8284271 20.8284271,17.5 20,17.5 L10.2071068,17.5 L6.35355339,21.3535534 C6.03857096,21.6685358 5.5,21.4454524 5.5,21 L5.5,17.5 L4,17.5 C3.17157288,17.5 2.5,16.8284271 2.5,16 L2.5,5 C2.5,4.17157288 3.17157288,3.5 4,3.5 L20,3.5 Z M20,4.5 L4,4.5 C3.72385763,4.5 3.5,4.72385763 3.5,5 L3.5,16 C3.5,16.2761424 3.72385763,16.5 4,16.5 L6,16.5 C6.27614237,16.5 6.5,16.7238576 6.5,17 L6.5,19.7928932 L9.64644661,16.6464466 C9.7402148,16.5526784 9.86739176,16.5 10,16.5 L20,16.5 C20.2761424,16.5 20.5,16.2761424 20.5,16 L20.5,5 C20.5,4.72385763 20.2761424,4.5 20,4.5 Z M7.5,9.5 C8.05228475,9.5 8.5,9.94771525 8.5,10.5 C8.5,11.0522847 8.05228475,11.5 7.5,11.5 C6.94771525,11.5 6.5,11.0522847 6.5,10.5 C6.5,9.94771525 6.94771525,9.5 7.5,9.5 Z M16.5,9.5 C17.0522847,9.5 17.5,9.94771525 17.5,10.5 C17.5,11.0522847 17.0522847,11.5 16.5,11.5 C15.9477153,11.5 15.5,11.0522847 15.5,10.5 C15.5,9.94771525 15.9477153,9.5 16.5,9.5 Z M12,9.5 C12.5522847,9.5 13,9.94771525 13,10.5 C13,11.0522847 12.5522847,11.5 12,11.5 C11.4477153,11.5 11,11.0522847 11,10.5 C11,9.94771525 11.4477153,9.5 12,9.5 Z" id="path-12"></path>
        <polygon id="path-14" points="0 0 39.0240976 0 39.0240976 39.0241951 0 39.0241951"></polygon>
        <polygon id="path-16" points="0 39.0243902 39.0243902 39.0243902 39.0243902 0 0 0"></polygon>
        <polygon id="path-18" points="0 0 23.4144585 0 23.4144585 23.4145171 0 23.4145171"></polygon>
        <polygon id="path-20" points="0 23.4146341 23.4146341 23.4146341 23.4146341 0 0 0"></polygon>
        <path d="M8.57142836,0 C9.00377104,0 9.4002786,0.215475773 9.60248673,0.521784838 L16.3325532,8.08535841 C16.5760971,8.32943233 16.7142853,8.65334968 16.7142853,9 L16.7142853,16.7142857 C16.7142853,17.4243661 16.1386514,18 15.4285714,18 L11.975317,17.9992886 L11.8505932,17.9913715 C11.2595704,17.9227251 10.7915603,17.454715 10.7207634,16.8389294 L10.7142854,16.7142857 L10.7142854,12.4285714 C10.7142854,12.2105715 10.550411,12.0277816 10.3609923,12.0050553 L10.285714,12 L6.85714269,12 C6.63914276,12 6.45635285,12.1638745 6.43362653,12.3532932 L6.42857142,12.4285714 L6.42857142,16.7142857 C6.42857142,17.3686374 5.93746301,17.9164326 5.2675007,17.993522 L5.14285701,18 L1.71428567,18 C1.0042053,18 0.428571418,17.4243661 0.428571418,16.7142857 L0.428571418,9 C0.428571418,8.6979008 0.533686343,8.4116188 0.71409734,8.19082977 L7.50532553,0.566889559 C7.74257812,0.215475773 8.13908567,0 8.57142836,0 Z M8.57142836,0.857142857 C8.42694429,0.857142857 8.29524936,0.928710385 8.1806775,1.09160951 L1.36741453,8.74814496 C1.31476615,8.82034606 1.28571425,8.90752705 1.28571425,9 L1.28571425,16.7142857 C1.28571425,16.9509792 1.47759221,17.1428571 1.71428567,17.1428571 L5.11817429,17.1435685 L5.19337248,17.1399524 C5.40755396,17.1150756 5.57142843,16.9322856 5.57142843,16.7142857 L5.5721398,12.4038887 L5.58005695,12.279165 C5.65499586,11.6339654 6.202791,11.1428571 6.85714269,11.1428571 L10.3103968,11.1435685 L10.4351205,11.1514857 C11.08032,11.2264246 11.5714283,11.7742197 11.5714283,12.4285714 L11.5707169,16.689603 L11.574333,16.7648012 C11.5970952,16.9607758 11.7535096,17.1171903 11.9247215,17.1378019 L11.9999997,17.1428571 L15.428571,17.1428571 C15.6652645,17.1428571 15.8571425,16.9509792 15.8571425,16.7142857 L15.8571425,9 C15.8571425,8.9070892 15.8278358,8.81981143 15.7637221,8.73560547 L8.92713476,1.04650478 C8.84760735,0.928710385 8.71591243,0.857142857 8.57142836,0.857142857 Z" id="path-22"></path>
    </defs>
    <g id="ic_set" stroke="none" stroke-width="1" fill="none" fill-rule="evenodd">
        <g id="icons-/-home" transform="translate(53.000000, 5.000000)">
            <mask id="mask-2" fill="white">
                <use xlink:href="#path-1"></use>
            </mask>
            <use id="Combined-Shape" fill="#333333" fill-rule="nonzero" xlink:href="#path-1"></use>
            <rect id="Rectangle" fill="#333333" mask="url(#mask-2)" x="0" y="0" width="16" height="16"></rect>
        </g>
        <g id="Group" transform="translate(99.000000, 0.000000)" stroke="#333333" stroke-linecap="round" stroke-linejoin="round">
            <g id="Group-2" transform="translate(2.500000, 3.000000)">
                <line x1="0" y1="0.5" x2="19" y2="0.5" id="Line-3"></line>
                <line x1="0" y1="9.5" x2="11" y2="9.5" id="Line-3-Copy"></line>
                <line x1="-5.13478149e-16" y1="17.5" x2="18.5" y2="17.5" id="Line-3-Copy-2"></line>
            </g>
        </g>
        <g id="ic_search" transform="translate(154.000000, 4.000000)" stroke="#333333">
            <circle id="Oval" cx="6.8" cy="6.8" r="6.3"></circle>
            <line x1="11.4546011" y1="11.5937103" x2="15.5758994" y2="15.7150085" id="Path-4" stroke-linecap="round"></line>
        </g>
        <g id="Group" transform="translate(0.000000, 100.000000)">
            <mask id="mask-4" fill="white">
                <use xlink:href="#path-3"></use>
            </mask>
            <use id="Combined-Shape" fill="#979797" fill-rule="nonzero" xlink:href="#path-3"></use>
            <rect id="Rectangle" fill="#333333" mask="url(#mask-4)" x="0" y="0" width="24" height="24"></rect>
        </g>
        <g id="Group" transform="translate(50.000000, 100.000000)">
            <g id="Rectangle" transform="translate(3.000000, 3.000000)" fill="#333333" fill-rule="nonzero">
                <g id="Mask">
                    <path d="M15.1111111,0.5 C15.833052,0.5 16.4263414,1.0508223 16.4936421,1.75512962 L16.5,1.88888889 L16.5,4.25282813 C16.5,4.52897051 16.2761424,4.75282813 16,4.75282813 C15.7545401,4.75282813 15.5503916,4.57595297 15.5080557,4.34270376 L15.5,4.25282813 L15.5,1.88888889 C15.5,1.70095866 15.3666959,1.54416328 15.1894858,1.50790084 L15.1111111,1.5 L1.88888889,1.5 C1.70095866,1.5 1.54416328,1.63330411 1.50790084,1.81051421 L1.5,1.88888889 L1.5,16.1111111 C1.5,16.2990413 1.63330411,16.4558367 1.81051421,16.4920992 L1.88888889,16.5 L13.9747211,16.5 C14.2508635,16.5 14.4747211,16.7238576 14.4747211,17 C14.4747211,17.2454599 14.297846,17.4496084 14.0645968,17.4919443 L13.9747211,17.5 L1.88888889,17.5 C1.16694804,17.5 0.573658631,16.9491777 0.506357943,16.2448704 L0.5,16.1111111 L0.5,1.88888889 C0.5,1.16694804 1.0508223,0.573658631 1.75512962,0.506357943 L1.88888889,0.5 L15.1111111,0.5 Z" id="Path"></path>
                    <path d="M13.5,6.5 C11.290861,6.5 9.5,8.290861 9.5,10.5 C9.5,12.709139 11.290861,14.5 13.5,14.5 C15.709139,14.5 17.5,12.709139 17.5,10.5 C17.5,8.290861 15.709139,6.5 13.5,6.5 Z M13.5,7.5 C15.1568542,7.5 16.5,8.84314575 16.5,10.5 C16.5,12.1568542 15.1568542,13.5 13.5,13.5 C11.8431458,13.5 10.5,12.1568542 10.5,10.5 C10.5,8.84314575 11.8431458,7.5 13.5,7.5 Z" id="Oval"></path>
                    <path d="M15.6464466,12.6464466 C15.820013,12.4728803 16.0894374,12.4535951 16.2843055,12.5885912 L16.3535534,12.6464466 L19.3535534,15.6464466 C19.5488155,15.8417088 19.5488155,16.1582912 19.3535534,16.3535534 C19.179987,16.5271197 18.9105626,16.5464049 18.7156945,16.4114088 L18.6464466,16.3535534 L15.6464466,13.3535534 C15.4511845,13.1582912 15.4511845,12.8417088 15.6464466,12.6464466 Z" id="Path"></path>
                </g>
            </g>
            <g id="Original-Copy"></g>
        </g>
        <g id="icon/toolbar/modify" transform="translate(106.500000, 107.500000)" stroke="#333333" stroke-linecap="round">
            <line x1="6.5" y1="5.5" x2="13.8684125" y2="5.5" id="Path-2"></line>
            <line x1="6.5" y1="5.5" x2="13.8684125" y2="5.5" id="Path-2-Copy" transform="translate(10.184206, 5.500000) rotate(90.000000) translate(-10.184206, -5.500000) "></line>
        </g>
        <path d="M117.611111,103 C118.333052,103 118.926341,103.550822 118.993642,104.25513 L119,104.388889 L119,106.752828 C119,107.028971 118.776142,107.252828 118.5,107.252828 C118.25454,107.252828 118.050392,107.075953 118.008056,106.842704 L118,106.752828 L118,104.388889 C118,104.200959 117.866696,104.044163 117.689486,104.007901 L117.611111,104 L104.388889,104 C104.200959,104 104.044163,104.133304 104.007901,104.310514 L104,104.388889 L104,118.611111 C104,118.799041 104.133304,118.955837 104.310514,118.992099 L104.388889,119 L116.474721,119 C116.750864,119 116.974721,119.223858 116.974721,119.5 C116.974721,119.74546 116.797846,119.949608 116.564597,119.991944 L116.474721,120 L104.388889,120 C103.666948,120 103.073659,119.449178 103.006358,118.74487 L103,118.611111 L103,104.388889 C103,103.666948 103.550822,103.073659 104.25513,103.006358 L104.388889,103 L117.611111,103 Z" id="Path" fill="#333333" fill-rule="nonzero"></path>
        <g id="Group" transform="translate(9.511279, 58.535130)" stroke="#333333" stroke-linecap="round" stroke-linejoin="round">
            <g id="Path-7">
                <polyline points="-6.65824002e-14 3.19744231e-14 4.65260075 4.74179927 -6.66133815e-14 9.46106057"></polyline>
            </g>
        </g>
        <g id="Group" transform="translate(57.000000, 60.535130)" stroke="#333333" stroke-linecap="round" stroke-linejoin="round">
            <g id="Path-7-Copy">
                <polyline transform="translate(5.326300, 2.730530) rotate(-270.000000) translate(-5.326300, -2.730530) " points="3 -2 7.65260075 2.74179927 3 7.46106057"></polyline>
            </g>
        </g>
        <g id="Group" transform="translate(111.000000, 58.535130)" stroke="#333333" stroke-linecap="round" stroke-linejoin="round">
            <g id="Path-7-Copy-2">
                <polyline transform="translate(2.326300, 4.730530) rotate(-180.000000) translate(-2.326300, -4.730530) " points="-6.65824002e-14 3.19744231e-14 4.65260075 4.74179927 -6.66133815e-14 9.46106057"></polyline>
            </g>
        </g>
        <g id="Group" transform="translate(156.000000, 60.535130)" stroke="#333333" stroke-linecap="round" stroke-linejoin="round">
            <g id="Path-7-Copy-3">
                <polyline transform="translate(5.326300, 2.730530) rotate(-90.000000) translate(-5.326300, -2.730530) " points="3 -2 7.65260075 2.74179927 3 7.46106057"></polyline>
            </g>
        </g>
        <g id="Group" transform="translate(9.511279, 305.535130)" stroke="#FFFFFF" stroke-linecap="round" stroke-linejoin="round">
            <g id="ic_arrow_r-(ic_accodion)_w">
                <polyline id="Path-7" points="-6.65824002e-14 3.19744231e-14 4.65260075 4.74179927 -6.66133815e-14 9.46106057"></polyline>
            </g>
        </g>
        <g id="Group" transform="translate(57.000000, 307.535130)" stroke="#FFFFFF" stroke-linecap="round" stroke-linejoin="round">
            <g id="ic_arrow_b_w">
                <polyline id="Path-7-Copy" transform="translate(5.326300, 2.730530) rotate(-270.000000) translate(-5.326300, -2.730530) " points="3 -2 7.65260075 2.74179927 3 7.46106057"></polyline>
            </g>
        </g>
        <g id="Group" transform="translate(111.000000, 305.535130)" stroke="#FFFFFF" stroke-linecap="round" stroke-linejoin="round">
            <g id="ic_arrow_l_w">
                <polyline id="Path-7-Copy-2" transform="translate(2.326300, 4.730530) rotate(-180.000000) translate(-2.326300, -4.730530) " points="-6.65824002e-14 3.19744231e-14 4.65260075 4.74179927 -6.66133815e-14 9.46106057"></polyline>
            </g>
        </g>
        <g id="Group" transform="translate(156.000000, 307.535130)" stroke="#FFFFFF" stroke-linecap="round" stroke-linejoin="round">
            <g id="ic_arrow_t_w">
                <polyline id="Path-7-Copy-3" transform="translate(5.326300, 2.730530) rotate(-90.000000) translate(-5.326300, -2.730530) " points="3 -2 7.65260075 2.74179927 3 7.46106057"></polyline>
            </g>
        </g>
        <g id="Group" transform="translate(305.000000, 57.000000)" stroke="#333333" stroke-linecap="round" stroke-linejoin="round">
            <g>
                <polyline id="Path-6" points="1.8189894e-13 4 4 9.09494702e-14 8 4"></polyline>
                <polyline id="Path-6-Copy" transform="translate(4.000000, 9.415469) rotate(-180.000000) translate(-4.000000, -9.415469) " points="0 11.4154687 4 7.41546867 8 11.4154687"></polyline>
            </g>
        </g>
        <g id="Group" transform="translate(207.000000, 61.000000)" stroke="#333333" stroke-linecap="round" stroke-linejoin="round">
            <g id="Path-6-Copy-2">
                <polyline points="0 4 4 0 8 4"></polyline>
            </g>
        </g>
        <g id="Group" transform="translate(258.000000, 63.000000)" stroke="#333333" stroke-linecap="round" stroke-linejoin="round">
            <g id="Path-6-Copy-3">
                <polyline transform="translate(4.000000, 2.000000) rotate(-180.000000) translate(-4.000000, -2.000000) " points="0 4 4 0 8 4"></polyline>
            </g>
        </g>
        <g id="Group" transform="translate(251.000000, 0.514853)" stroke="#333333" stroke-linecap="round" stroke-linejoin="round">
            <g>
                <line x1="22.4915665" y1="0" x2="0.0064196829" y2="22.4851468" id="Path-8"></line>
                <line x1="22.4851468" y1="0" x2="-1.13686838e-13" y2="22.4851468" id="Path-8-Copy" transform="translate(11.242573, 11.242573) rotate(-270.000000) translate(-11.242573, -11.242573) "></line>
            </g>
        </g>
        <g id="Group" transform="translate(3.500000, 3.500000)">
            <g transform="translate(9.000000, 9.000000) rotate(-270.000000) translate(-9.000000, -9.000000) ">
                <line x1="4" y1="6" x2="9" y2="1" id="Line-3" stroke="#333333" stroke-linecap="round"></line>
                <line x1="9" y1="1" x2="14" y2="6" id="Line" stroke="url(#linearGradient-5)" stroke-linecap="round"></line>
                <line x1="9" y1="2" x2="9" y2="14" id="Line-2" stroke="#333333" stroke-linecap="round"></line>
                <path d="M17.5,13.5 L17.5,16.5 C17.5,17.0522847 17.0522847,17.5 16.5,17.5 L1.5,17.5 C0.94771525,17.5 0.5,17.0522847 0.5,16.5 L0.5,13.5 L17.5,13.5 L17.5,13.5 Z M16.5,13.5 L1.5,13.5 L1.5,16.5 L16.5,16.5 L16.5,13.5 Z" id="Combined-Shape" fill="#333333" fill-rule="nonzero"></path>
            </g>
        </g>
        <polygon id="Path-3" stroke="#333333" stroke-linecap="round" stroke-linejoin="round" points="202.5 5 220.5 5 213.728607 12.605344 213.728607 21 209.267623 18.8072798 209.267623 13"></polygon>
        <g id="Group" transform="translate(301.000000, 2.000000)" stroke="#333333" stroke-linecap="round">
            <g id="ic-/-create">
                <line x1="3.5" y1="10.5" x2="18.5" y2="10.5" id="Line-4"></line>
                <line x1="3.5" y1="10.5" x2="18.5" y2="10.5" id="Line-4-Copy" transform="translate(11.000000, 10.500000) rotate(90.000000) translate(-11.000000, -10.500000) "></line>
            </g>
        </g>
        <g id="Group" transform="translate(253.000000, 103.000000)">
            <circle id="Oval" stroke="#333333" cx="9" cy="9" r="8.5"></circle>
            <text id="i" font-family="NotoSansKR-Medium, Noto Sans KR" font-size="12" font-weight="400" letter-spacing="-0.375" fill="#333333">
                <tspan x="7.4655" y="14">i</tspan>
            </text>
        </g>
        <circle id="Oval" fill="#FFFFFF" opacity="0.241466704" cx="257" cy="307" r="7"></circle>
        <text id="i" font-family="NotoSansKR-Medium, Noto Sans KR" font-size="12" font-weight="400" letter-spacing="-0.375" fill="#FFFFFF">
            <tspan x="255.638577" y="312">i</tspan>
        </text>
        <g id="Group" transform="translate(150.000000, 100.000000)" stroke="#333333">
            <g id="original-copy" transform="translate(1.000000, 5.000000)">
                <path d="M11.143843,0 C14.800656,0 18.4191162,2.33299596 21.9992235,6.99898789 L22,7 C18.2278487,11.6666667 14.5132344,14 10.856157,14 C7.199344,14 3.58088385,11.667004 0.000776539196,7.00101211 L-1.0658141e-14,7 L9.04165631e-13,7 L0.001,6.999 L0.297681879,6.63642659 C3.96761744,2.2121422 7.58300448,0 11.143843,0 Z" id="Combined-Shape" stroke-linecap="square" stroke-linejoin="round"></path>
                <circle id="Oval" cx="11" cy="7" r="2.5"></circle>
            </g>
        </g>
        <g id="Group" transform="translate(199.000000, 100.000000)">
            <g id="original-copy" transform="translate(0.000000, 4.000000)">
                <path d="M7.04903415,1.91616425 L7.78361139,2.65038568 C5.78066188,3.69460444 3.74137513,5.45218206 1.66989215,7.93320525 L1.66989215,7.93320525 L1.609,8.0052 L1.9284106,8.40478258 C5.17006379,12.3835074 8.40224615,14.3978555 11.6091861,14.4962123 L11.6091861,14.4962123 L11.856157,14.5 C13.7446688,14.5 15.6702618,13.8359018 17.6292419,12.4984954 L18.3399581,13.2083942 C16.1790042,14.7327255 14.019079,15.5 11.856157,15.5 C7.99935014,15.5 4.24907563,13.0616753 0.585555228,8.24680191 C0.515088295,8.15418898 0.486997474,8.04146098 0.50693707,7.93130856 L0.50693707,7.93130856 L0.525128907,7.86398663 C0.540987109,7.82041988 0.564206204,7.77964307 0.594187842,7.74262163 L0.594187842,7.74262163 L0.858006328,7.41687101 C2.92391004,4.89773803 4.98649038,3.06109762 7.04903415,1.91616425 Z M12.143843,0.5 C16.0008905,0.5 19.7513914,2.93862759 23.4151319,7.75410117 C23.5307687,7.90608952 23.5280166,8.10529851 23.4082153,8.25475455 C22.4033744,9.50832652 21.3994325,10.6005382 20.3959871,11.5303681 L19.7053907,10.8398889 C20.4872189,10.1253205 21.2740405,9.30547804 22.0656287,8.37979612 L22.0656287,8.37979612 L22.39,7.99306667 L22.0722272,7.59600017 C18.8303672,3.616765 15.5979754,1.60215765 12.3908297,1.50378815 L12.3908297,1.50378815 L12.143843,1.5 C11.6082694,1.5 11.0697166,1.55340305 10.5282705,1.66041901 L9.69425829,0.827808656 C10.5105045,0.609459767 11.3269649,0.5 12.143843,0.5 Z" id="Combined-Shape" fill="#333333" fill-rule="nonzero"></path>
                <path d="M10.6851579,5.87320433 C10.9085044,5.92568411 11.0066285,6.02236956 11.1165701,6.13155804 C11.6019923,6.61365514 12.3103705,7.33223384 12.946211,7.97721339 C13.2933583,8.3293503 13.618971,8.65963833 13.8752928,8.91804748 C13.502148,10.0560698 12.8179265,10.5 12,10.5 C11.3096441,10.5 10.6846441,10.220178 10.232233,9.76776695 C9.77982203,9.31535594 9.5,8.69035594 9.5,8 C9.5,7.1016277 9.97391113,6.31403803 10.6851579,5.87320433 Z" id="Oval" stroke="#333333"></path>
            </g>
            <line x1="2.5" y1="1.5" x2="22.5" y2="21.5" id="Line-4" stroke="#333333" stroke-linecap="round" stroke-linejoin="round"></line>
        </g>
        <g id="Group" transform="translate(1.000000, 151.000000)" stroke="#333333" stroke-width="2">
            <g id="Group">
                <line x1="0.508474576" y1="0.46574562" x2="0.508474576" y2="110.381712" id="Line-5" stroke-linecap="round" stroke-linejoin="round"></line>
                <line x1="179.491525" y1="0.46574562" x2="179.491525" y2="110.381712" id="Line-5-Copy" stroke-linecap="round" stroke-linejoin="round"></line>
                <line x1="12.5681651" y1="0.38688283" x2="45.3979366" y2="35.2063375" id="Line" stroke-linecap="round" stroke-linejoin="round"></line>
                <line x1="35.5932203" y1="69.1525424" x2="52.8813559" y2="86.440678" id="Line-Copy-2" stroke-linecap="round" stroke-linejoin="round"></line>
                <line x1="125.084746" y1="69.1525424" x2="142.372881" y2="86.440678" id="Line-Copy-4" stroke-linecap="round" stroke-linejoin="round"></line>
                <circle id="Oval" cx="90" cy="99.1525424" r="10.6949153"></circle>
                <line x1="35.5932203" y1="69.1525424" x2="52.8813559" y2="86.440678" id="Line-Copy-3" stroke-linecap="round" stroke-linejoin="round" transform="translate(44.237288, 77.796610) scale(-1, 1) translate(-44.237288, -77.796610) "></line>
                <line x1="125.084746" y1="69.1525424" x2="142.372881" y2="86.440678" id="Line-Copy-5" stroke-linecap="round" stroke-linejoin="round" transform="translate(133.728814, 77.796610) scale(-1, 1) translate(-133.728814, -77.796610) "></line>
                <line x1="133.585114" y1="0.38688283" x2="166.414886" y2="35.2063375" id="Line-Copy" stroke-linecap="round" stroke-linejoin="round" transform="translate(150.000000, 17.796610) scale(-1, 1) translate(-150.000000, -17.796610) "></line>
                <line x1="53.4454449" y1="45.2542373" x2="124.520657" y2="45.2542373" id="Line-2" stroke-linecap="round" stroke-linejoin="round"></line>
            </g>
        </g>
        <g id="Group" transform="translate(402.000000, 3.000000)" stroke="#333333" stroke-linecap="round">
            <g id="ic-/-create" transform="translate(9.500000, 9.500000) rotate(-315.000000) translate(-9.500000, -9.500000) translate(3.166667, 3.166667)">
                <line x1="1.05555556" y1="6.33333333" x2="12.3650794" y2="6.33333333" id="Line-4"></line>
                <line x1="1.05555556" y1="6.33333333" x2="12.3650794" y2="6.33333333" id="Line-4-Copy" transform="translate(6.710317, 6.333333) rotate(90.000000) translate(-6.710317, -6.333333) "></line>
            </g>
        </g>
        <g id="Group" transform="translate(348.000000, -1.000000)" stroke="#333333" stroke-linecap="round">
            <g id="ic-/-del" transform="translate(13.500000, 13.500000) rotate(-315.000000) translate(-13.500000, -13.500000) translate(4.000000, 4.000000)">
                <g id="ic-/-create" transform="translate(9.500000, 9.500000) rotate(-315.000000) translate(-9.500000, -9.500000) translate(3.166667, 3.166667)">
                    <line x1="1.05555556" y1="6.33333333" x2="12.3650794" y2="6.33333333" id="Line-4"></line>
                    <line x1="1.05555556" y1="6.33333333" x2="12.3650794" y2="6.33333333" id="Line-4-Copy" transform="translate(6.710317, 6.333333) rotate(90.000000) translate(-6.710317, -6.333333) "></line>
                </g>
            </g>
        </g>
        <g id="Group" transform="translate(300.000000, 100.000000)">
            <rect id="Rectangle" fill-opacity="0" fill="#D8D8D8" x="0" y="0" width="24" height="24"></rect>
            <mask id="mask-7" fill="white">
                <use xlink:href="#path-6"></use>
            </mask>
            <use id="Path" fill="#333333" fill-rule="nonzero" xlink:href="#path-6"></use>
        </g>
        <g id="Group" transform="translate(349.000000, 100.000000)">
            <mask id="mask-9" fill="white">
                <use xlink:href="#path-8"></use>
            </mask>
            <use id="Combined-Shape" fill="#979797" fill-rule="nonzero" xlink:href="#path-8"></use>
            <g mask="url(#mask-9)" fill="#333333" id="Color/Black">
                <g>
                    <rect id="Rectangle" x="0" y="0" width="24" height="24"></rect>
                </g>
            </g>
        </g>
        <g id="Group" transform="translate(549.000000, 100.000000)">
            <g id="icon/delete" transform="translate(3.000000, 3.000000)">
                <mask id="mask-11" fill="white">
                    <use xlink:href="#path-10"></use>
                </mask>
                <use id="Combined-Shape" fill="#979797" fill-rule="nonzero" xlink:href="#path-10"></use>
                <g id="Group" mask="url(#mask-11)">
                    <g transform="translate(-3.000000, -3.000000)" id="Color/Black">
                        <rect id="Rectangle" fill="#333333" x="0" y="0" width="24" height="24"></rect>
                    </g>
                </g>
            </g>
        </g>
        <g id="Group" transform="translate(399.000000, 100.000000)">
            <mask id="mask-13" fill="white">
                <use xlink:href="#path-12"></use>
            </mask>
            <use id="Combined-Shape" fill="#979797" fill-rule="nonzero" xlink:href="#path-12"></use>
            <g mask="url(#mask-13)" fill="#333333" id="Color/Black">
                <g>
                    <rect id="Rectangle" x="0" y="0" width="24" height="24"></rect>
                </g>
            </g>
        </g>
        <g id="Group" transform="translate(512.000000, 111.000000) rotate(-360.000000) translate(-512.000000, -111.000000) translate(503.000000, 102.000000)">
            <g id="Group-2" transform="translate(9.000000, 7.500000) rotate(-180.000000) translate(-9.000000, -7.500000) translate(3.500000, 0.500000)" stroke="#333333" stroke-linecap="round">
                <line x1="0.5" y1="5.5" x2="5.5" y2="0.5" id="Line-3"></line>
                <line x1="5.5" y1="0.5" x2="10.5" y2="5.5" id="Line"></line>
                <line x1="5.5" y1="1.5" x2="5.5" y2="13.5" id="Line-2"></line>
            </g>
            <path d="M17.5,13.5 L17.5,16.5 C17.5,17.0522847 17.0522847,17.5 16.5,17.5 L1.5,17.5 C0.94771525,17.5 0.5,17.0522847 0.5,16.5 L0.5,13.5 L17.5,13.5 L17.5,13.5 Z M16.5,13.5 L1.5,13.5 L1.5,16.5 L16.5,16.5 L16.5,13.5 Z" id="Combined-Shape" fill="#333333" fill-rule="nonzero"></path>
        </g>
        <g id="Group" transform="translate(549.000000, 50.000000)" stroke="#333333" stroke-linecap="round">
            <g id="Group-5" transform="translate(4.000000, 3.000000)">
                <g id="Group" transform="translate(4.000000, 10.500000) rotate(-360.000000) translate(-4.000000, -10.500000) translate(0.000000, 3.000000)">
                    <g id="Group-2" transform="translate(4.000000, 7.500000) rotate(-180.000000) translate(-4.000000, -7.500000) translate(0.500000, 0.500000)">
                        <line x1="0" y1="5" x2="3.5" y2="0.5" id="Line-3"></line>
                        <line x1="3.5" y1="0.5" x2="7" y2="5" id="Line"></line>
                        <line x1="3.5" y1="1.5" x2="3.5" y2="13.5" id="Line-2"></line>
                    </g>
                </g>
                <g id="Group-Copy" transform="translate(12.000000, 7.500000) rotate(-180.000000) translate(-12.000000, -7.500000) translate(8.000000, 0.000000)">
                    <g id="Group-2" transform="translate(4.000000, 7.500000) rotate(-180.000000) translate(-4.000000, -7.500000) translate(0.500000, 0.500000)">
                        <line x1="0" y1="5" x2="3.5" y2="0.5" id="Line-3"></line>
                        <line x1="3.5" y1="0.5" x2="7" y2="5" id="Line"></line>
                        <line x1="3.5" y1="1.5" x2="3.5" y2="13.5" id="Line-2"></line>
                    </g>
                </g>
            </g>
        </g>
        <g id="Group" transform="translate(503.000000, 58.000000)" stroke="#333333" stroke-linecap="round" stroke-linejoin="round">
            <g id="foundation-/-ic-/-ic_arrow_t" transform="translate(0.974897, 0.661467)">
                <polyline id="Path-7-Copy-3" transform="translate(7.740868, 3.806673) rotate(-90.000000) translate(-7.740868, -3.806673) " points="3.9341944 -3.9341944 11.5475411 3.8251135 3.9341944 11.5475411"></polyline>
            </g>
        </g>
        <g id="ic_arrow_b_b" transform="translate(403.000000, 53.000000)" stroke="#333333" stroke-linecap="round" stroke-linejoin="round">
            <g id="ic_arrow_b" transform="translate(0.000000, 6.000000)">
                <polyline id="Path-7-Copy" transform="translate(8.715764, 4.468140) rotate(-270.000000) translate(-8.715764, -4.468140) " points="4.90909091 -3.27272727 12.5224376 4.48658063 4.90909091 12.2090082"></polyline>
            </g>
            <g id="foundation-/-ic-/-ic_arrow_l" transform="translate(55.000000, 0.000000)">
                <polyline id="Path-7-Copy-2" transform="translate(4.187341, 8.988008) rotate(-180.000000) translate(-4.187341, -8.988008) " points="-1.1984832e-13 6.07514039e-14 8.37468135 9.00941862 -1.19904087e-13 17.9760151"></polyline>
            </g>
        </g>
        <g id="Group" transform="translate(358.000000, 53.000000)" stroke="#333333" stroke-linecap="round" stroke-linejoin="round">
            <g id="foundation-/-ic-/-ic_arrow_r-(ic_accodion)">
                <polyline id="Path-7" points="-1.331648e-13 6.07514039e-14 9.3052015 9.00941862 -1.33226763e-13 17.9760151"></polyline>
            </g>
        </g>
        <g id="Group-3" transform="translate(504.000000, 5.000000)" stroke="#333333" stroke-linecap="round">
            <line x1="0.375" y1="7.5" x2="15.375" y2="7.5" id="Line-4"></line>
            <line x1="0.375" y1="7.5" x2="15.375" y2="7.5" id="Line-4-Copy" transform="translate(7.875000, 7.500000) rotate(90.000000) translate(-7.875000, -7.500000) "></line>
        </g>
        <line x1="455.375" y1="12.21875" x2="470.375" y2="12.21875" id="Line-4" stroke="#333333" stroke-linecap="round"></line>
        <g id="Group" transform="translate(554.000000, 5.000000)" stroke="#979797" stroke-linecap="round">
            <g>
                <line x1="0.5" y1="0.5" x2="0.5" y2="12.5" id="Line"></line>
                <line x1="0.5" y1="12.5" x2="12.5" y2="12.5" id="Line-6"></line>
            </g>
        </g>
        <g id="Group" transform="translate(251.000000, 151.000000)" stroke="#333333" stroke-linecap="round" stroke-linejoin="round">
            <g id="foundation-/-ic-/-ic_create_l" transform="translate(16.263456, 16.263456) rotate(-315.000000) translate(-16.263456, -16.263456) translate(4.763456, 4.763456)">
                <line x1="22.4915665" y1="0" x2="0.0064196829" y2="22.4851468" id="Path-8"></line>
                <line x1="22.4851468" y1="0" x2="-1.13686838e-13" y2="22.4851468" id="Path-8-Copy" transform="translate(11.242573, 11.242573) rotate(-270.000000) translate(-11.242573, -11.242573) "></line>
            </g>
        </g>
        <g id="Oval-2" transform="translate(300.000000, 150.000000)">
            <circle id="Oval" stroke="#979797" fill="#FFFFFF" cx="17" cy="17" r="16.5"></circle>
            <line x1="9.375" y1="17.21875" x2="25.375" y2="17.21875" id="Line-4" stroke="#AAAAAA" stroke-linecap="round"></line>
        </g>
        <g id="Oval-2-Copy" transform="translate(350.000000, 150.000000)">
            <circle id="Oval" stroke="#979797" fill="#FFFFFF" cx="17" cy="17" r="16.5"></circle>
            <line x1="9.375" y1="15.21875" x2="25.375" y2="15.21875" id="Line-4" stroke="#AAAAAA" stroke-linecap="round"></line>
            <line x1="9.375" y1="20.21875" x2="25.375" y2="20.21875" id="Line-4-Copy" stroke="#AAAAAA" stroke-linecap="round"></line>
        </g>
        <g id="Group-4" transform="translate(456.000000, 112.000000)" stroke="#333333" stroke-linecap="round" stroke-linejoin="round">
            <path d="M0.390531584,4.85123257 C1.75046486,6.75726134 3.98010385,8 6.5,8 C10.6421356,8 14,4.64213562 14,0.5" id="Shape"></path>
            <polyline id="Path-6-Copy" transform="translate(1.500000, 5.500000) rotate(-180.000000) translate(-1.500000, -5.500000) " points="3 4 3 7 0 7"></polyline>
        </g>
        <g id="Group-4-Copy" transform="translate(462.000000, 109.000000) rotate(-180.000000) translate(-462.000000, -109.000000) translate(455.000000, 105.000000)" stroke="#333333" stroke-linecap="round" stroke-linejoin="round">
            <path d="M0.390531584,4.85123257 C1.75046486,6.75726134 3.98010385,8 6.5,8 C10.6421356,8 14,4.64213562 14,0.5" id="Shape"></path>
            <polyline id="Path-6-Copy" transform="translate(1.500000, 5.500000) rotate(-180.000000) translate(-1.500000, -5.500000) " points="3 4 3 7 0 7"></polyline>
        </g>
        <g id="Group-18" transform="translate(0.000000, 350.000000)">
            <g id="Group-3" transform="translate(0.000293, 0.000000)">
                <mask id="mask-15" fill="white">
                    <use xlink:href="#path-14"></use>
                </mask>
                <g id="Clip-2"></g>
                <path d="M27.6292683,39.0241951 L11.3941463,39.0241951 C5.10146341,39.0241951 0,33.9227317 0,27.6290732 L0,10.7910244 C0,4.83102439 4.83121951,-0.000195121951 10.7892683,-0.000195121951 L27.6292683,-0.000195121951 C33.9219512,-0.000195121951 39.0243902,5.10126829 39.0243902,11.3949268 L39.0243902,27.6290732 C39.0243902,33.9227317 33.9219512,39.0241951 27.6292683,39.0241951" id="Fill-1" fill="#254FFE" mask="url(#mask-15)"></path>
            </g>
            <path d="M27.7686829,7.35502439 L11.2555122,7.35502439 C10.0691707,7.35502439 9.10819512,8.316 9.10819512,9.50234146 L9.10819512,31.1696585 C9.10819512,32.356 10.0691707,33.3169756 11.2555122,33.3169756 L21.7150244,33.3169756 L22.8506341,33.3169756 C22.8828293,33.3081951 22.9150244,33.3013659 22.9481951,33.2886829 C24.0369756,32.9052683 28.8438049,31.0789268 28.8438049,31.0789268 C28.8438049,31.0789268 29.6847805,30.7989268 29.916,29.9179512 L29.916,17.0574634 L29.916,9.50234146 C29.916,8.316 28.9550244,7.35502439 27.7686829,7.35502439" id="Fill-4" fill="#FFFFFF"></path>
            <path d="M26.6692683,4.43960976 C21.8595122,4.43960976 17.9473171,8.35278049 17.9473171,13.161561 C17.9473171,17.9722927 21.8595122,21.8854634 26.6692683,21.8854634 C31.48,21.8854634 35.3921951,17.9722927 35.3921951,13.161561 C35.3921951,8.35278049 31.48,4.43960976 26.6692683,4.43960976" id="Fill-6" fill="#FFFFFF"></path>
            <path d="M35.2296585,13.1619512 C35.2296585,17.8907317 31.3964878,21.7219512 26.6696585,21.7219512 C21.9418537,21.7219512 18.1086829,17.8907317 18.1086829,13.1619512 C18.1086829,8.43414634 21.9418537,4.60195122 26.6696585,4.60195122 C31.3964878,4.60195122 35.2296585,8.43414634 35.2296585,13.1619512 Z" id="Stroke-8" stroke="#FFFFFF"></path>
            <path d="M35.2296585,13.1619512 C35.2296585,17.8907317 31.3964878,21.7219512 26.6696585,21.7219512 C21.9418537,21.7219512 18.1086829,17.8907317 18.1086829,13.1619512 C18.1086829,8.43414634 21.9418537,4.60195122 26.6696585,4.60195122 C31.3964878,4.60195122 35.2296585,8.43414634 35.2296585,13.1619512" id="Fill-10" fill="#254FFE"></path>
            <path d="M31.5949268,13.2715122 L30.4241951,13.2715122 L30.992,10.594439 C31.0241951,10.2500488 30.7715122,10.0451707 30.5285854,10.0432195 L30.3598049,10.0432195 L29.8749268,10.0432195 C29.7480976,10.0432195 29.6388293,10.1329756 29.6154146,10.2578537 L29.174439,12.5212683 L28.752,14.6841951 C28.747122,14.7085854 28.7149268,14.709561 28.7090732,14.6851707 L28.192,12.5212683 L27.6485854,10.247122 C27.6202927,10.127122 27.5129756,10.0432195 27.3900488,10.0432195 L26.2251707,10.0432195 C26.1022439,10.0432195 25.9949268,10.1280976 25.9656585,10.247122 L24.9139512,14.6880976 C24.9090732,14.7115122 24.8759024,14.7105366 24.8710244,14.687122 L24.0105366,10.2578537 C23.9851707,10.1329756 23.8759024,10.0432195 23.7490732,10.0432195 L23.2749268,10.0432195 L23.1061463,10.0432195 C22.8427317,10.0432195 22.5959024,10.2607805 22.654439,10.5866341 L22.6993171,10.8461463 L23.2105366,13.2685854 L22.0456585,13.2685854 C21.8037073,13.2685854 21.6066341,13.4734634 21.6066341,13.7300488 C21.6066341,13.9798049 21.8027317,14.1837073 22.0427317,14.1837073 L23.4037073,14.1837073 L24.0378537,17.1827317 C24.0837073,17.3993171 24.2759024,17.5563902 24.4983415,17.5563902 L24.9724878,17.5563902 C25.1754146,17.5563902 25.3441951,17.5105366 25.4739512,17.4207805 C25.614439,17.3222439 25.7110244,17.1593171 25.7646829,16.9232195 L26.7861463,12.5232195 C26.792,12.5007805 26.8241951,12.5007805 26.8290732,12.5232195 L27.0612683,13.5154146 L27.9529756,17.3329756 C27.9656585,17.389561 27.9959024,17.4383415 28.0359024,17.4763902 C28.6202927,17.2617561 29.3676098,16.9846829 29.3676098,16.9846829 C29.3676098,16.9846829 29.6437073,16.8929756 29.716878,16.6032195 C29.7188293,16.5954146 29.7198049,16.5866341 29.7217561,16.5788293 L30.2300488,14.1856585 L31.5949268,14.1856585 C31.836878,14.1856585 32.0339512,13.9817561 32.0339512,13.7290732 C32.0339512,13.4763902 31.836878,13.2715122 31.5949268,13.2715122" id="Fill-12" fill="#FFFFFF"></path>
            <mask id="mask-17" fill="white">
                <use xlink:href="#path-16"></use>
            </mask>
            <g id="Clip-15"></g>
            <polygon id="Fill-14" fill="#254FFE" mask="url(#mask-17)" points="21.2936585 26.9882927 26.6692683 26.9882927 26.6692683 26.0146341 21.2936585 26.0146341"></polygon>
            <polygon id="Fill-16" fill="#254FFE" mask="url(#mask-17)" points="17.9392195 26.0649756 15.7382439 26.0649756 15.7382439 23.864 14.7645854 23.864 14.7645854 26.0649756 12.5626341 26.0649756 12.5626341 27.0386341 14.7645854 27.0386341 14.7645854 29.2396098 15.7382439 29.2396098 15.7382439 27.0386341 17.9392195 27.0386341"></polygon>
            <polygon id="Fill-17" fill="#254FFE" mask="url(#mask-17)" points="17.4961951 16.8786341 16.8074146 16.1908293 15.2513171 17.7479024 13.6952195 16.1908293 13.0054634 16.8786341 14.5625366 18.4357073 13.0054634 19.9918049 13.6952195 20.6796098 15.2513171 19.1244878 16.8074146 20.6796098 17.4961951 19.9918049 15.939122 18.4357073"></polygon>
        </g>
        <g id="Group-6" transform="translate(50.000000, 350.000000)">
            <path d="M28.3205948,40 L11.6797379,40 C5.22925174,40 0,34.7710374 0,28.3208304 L0,11.0600642 C0,4.95151283 4.95180432,0 11.0599722,0 L28.3205948,0 C34.7710809,0 40,5.22862988 40,11.6791696 L40,28.3208304 C40,34.7710374 34.7710809,40 28.3205948,40" id="Fill-2" fill="#032F70"></path>
            <path d="M30.8571395,16.2034865 L24.7205102,16.2034865 C24.6326599,16.2034865 24.5610908,16.2727238 24.5610908,16.3577118 L24.5729624,19.1711768 L24.5733016,19.1711768 L31.0162197,19.1587075 C31.4585238,19.1587075 31.817387,19.5055506 31.817387,19.933444 L31.817387,20.0876694 C31.817387,20.600879 31.3869546,21.0172876 30.8564611,21.0172876 L23.7548357,21.0172876 L20.9928098,22.1680715 L20.9602475,30.4073171 L20.9680489,30.4962428 C20.9680489,31.0094524 20.5376165,31.425861 20.007123,31.425861 L19.8473644,31.425861 C19.4057387,31.425861 19.0468755,31.0777054 19.0468755,30.6468587 L19.0465363,30.5005086 L19.0326295,22.3721741 C19.0326295,22.3327974 19.0482323,22.2944051 19.0760459,22.265857 L23.6052528,20.5483768 L23.605592,20.5483768 C23.6059312,20.5480486 23.776883,20.3590405 23.9118807,20.0624027 C23.9759877,19.921631 24.0302581,19.7332791 24.0227959,19.5340987 L24.0227959,9.88418296 C24.0227959,7.73913742 22.2250878,6 20.0078014,6 L20.007123,6 C17.7898366,6 15.9921284,7.73913742 15.9921284,9.88418296 L15.9921284,16.2149713 L16.0104447,16.2346597 L15.9772041,16.2149713 L9.14319967,16.2149713 C6.92557406,16.2149713 5.12820513,17.9544369 5.12820513,20.0998106 C5.12820513,22.2448561 6.92523487,23.9839935 9.14252129,23.9839935 L15.3049291,23.9964628 C15.3931185,23.9964628 15.4643485,23.9272255 15.4643485,23.8422374 L15.452816,21.0287725 L15.4524768,21.0287725 L8.98378027,21.0287725 C8.54113705,21.0287725 8.1822738,20.6816013 8.1822738,20.2537078 L8.1822738,20.0998106 C8.1822738,19.586601 8.61270618,19.1701924 9.14319967,19.1701924 L17.3926448,19.1701924 L17.392984,19.1701924 L19.0068511,18.534915 C19.0478931,18.449927 19.0468755,9.88385482 19.0468755,9.88385482 C19.0468755,9.37097335 19.4766295,8.95522106 20.007123,8.95522106 C20.5376165,8.95522106 20.9680489,9.37162963 20.9680489,9.88483924 L20.9680489,18.2044789 C20.9680489,18.2438556 20.9524461,18.2815916 20.9246325,18.3101397 L16.5260138,20.0436988 C16.4401987,20.0784815 16.4008527,20.0971854 16.3543836,20.15986 C16.2804401,20.2386134 16.1735952,20.3728223 16.0955815,20.563143 C15.9748297,20.8584682 15.9761865,21.2643764 15.9765257,21.2991591 L15.9921284,30.6488275 L15.9921284,30.6504682 C15.9921284,32.0099487 16.7475051,33.20175 17.8739557,33.8534343 C18.1483606,34.0122537 18.4817846,34.0444113 18.7819679,33.9380942 C20.5674652,33.3041294 22.8892222,32.4650776 22.8892222,32.4650776 C22.8892222,32.4650776 23.5506431,32.2462088 23.8504873,31.5968215 C23.9376592,31.4084696 23.9987134,31.1889445 23.9987134,30.9218393 C23.9987134,30.7971464 24.0227959,23.9721805 24.0227959,23.9721805 L30.8564611,23.9721805 C33.0740867,23.9721805 34.8717949,22.2330431 34.8717949,20.0876694 C34.8717949,17.9426239 33.0744259,16.2034865 30.8571395,16.2034865" id="Fill-4" fill="#FFFFFF"></path>
        </g>
        <g id="Group-18" transform="translate(0.000000, 400.000000)">
            <g id="Group-3" transform="translate(0.000176, 0.000000)">
                <mask id="mask-19" fill="white">
                    <use xlink:href="#path-18"></use>
                </mask>
                <g id="Clip-2"></g>
                <path d="M16.577561,23.4145171 L6.8364878,23.4145171 C3.06087805,23.4145171 0,20.353639 0,16.5774439 L0,6.47461463 C0,2.89861463 2.89873171,-0.000117073171 6.47356098,-0.000117073171 L16.577561,-0.000117073171 C20.3531707,-0.000117073171 23.4146341,3.06076098 23.4146341,6.8369561 L23.4146341,16.5774439 C23.4146341,20.353639 20.3531707,23.4145171 16.577561,23.4145171" id="Fill-1" fill="#254FFE" mask="url(#mask-19)"></path>
            </g>
            <path d="M16.6612098,4.41301463 L6.75330732,4.41301463 C6.04150244,4.41301463 5.46491707,4.9896 5.46491707,5.70140488 L5.46491707,18.7017951 C5.46491707,19.4136 6.04150244,19.9901854 6.75330732,19.9901854 L13.0290146,19.9901854 L13.7103805,19.9901854 C13.7296976,19.9849171 13.7490146,19.9808195 13.7689171,19.9732098 C14.4221854,19.743161 17.3062829,18.6473561 17.3062829,18.6473561 C17.3062829,18.6473561 17.8108683,18.4793561 17.9496,17.9507707 L17.9496,10.234478 L17.9496,5.70140488 C17.9496,4.9896 17.3730146,4.41301463 16.6612098,4.41301463" id="Fill-4" fill="#FFFFFF"></path>
            <path d="M16.001561,2.66376585 C13.1157073,2.66376585 10.7683902,5.01166829 10.7683902,7.89693659 C10.7683902,10.7833756 13.1157073,13.131278 16.001561,13.131278 C18.888,13.131278 21.2353171,10.7833756 21.2353171,7.89693659 C21.2353171,5.01166829 18.888,2.66376585 16.001561,2.66376585" id="Fill-6" fill="#FFFFFF"></path>
            <path d="M21.1377951,7.89717073 C21.1377951,10.734439 18.8378927,13.0331707 16.0017951,13.0331707 C13.1651122,13.0331707 10.8652098,10.734439 10.8652098,7.89717073 C10.8652098,5.0604878 13.1651122,2.76117073 16.0017951,2.76117073 C18.8378927,2.76117073 21.1377951,5.0604878 21.1377951,7.89717073 Z" id="Stroke-8" stroke="#FFFFFF"></path>
            <path d="M21.1377951,7.89717073 C21.1377951,10.734439 18.8378927,13.0331707 16.0017951,13.0331707 C13.1651122,13.0331707 10.8652098,10.734439 10.8652098,7.89717073 C10.8652098,5.0604878 13.1651122,2.76117073 16.0017951,2.76117073 C18.8378927,2.76117073 21.1377951,5.0604878 21.1377951,7.89717073" id="Fill-10" fill="#254FFE"></path>
            <path d="M18.9569561,7.96290732 L18.2545171,7.96290732 L18.5952,6.35666341 C18.6145171,6.15002927 18.4629073,6.02710244 18.3171512,6.02593171 L18.2158829,6.02593171 L17.9249561,6.02593171 C17.8488585,6.02593171 17.7832976,6.07978537 17.7692488,6.1547122 L17.5046634,7.51276098 L17.2512,8.81051707 C17.2482732,8.82515122 17.2289561,8.82573659 17.2254439,8.81110244 L16.9152,7.51276098 L16.5891512,6.14827317 C16.5721756,6.07627317 16.5077854,6.02593171 16.4340293,6.02593171 L15.7351024,6.02593171 C15.6613463,6.02593171 15.5969561,6.07685854 15.5793951,6.14827317 L14.9483707,8.81285854 C14.9454439,8.82690732 14.9255415,8.82632195 14.9226146,8.81227317 L14.406322,6.1547122 C14.3911024,6.07978537 14.3255415,6.02593171 14.2494439,6.02593171 L13.9649561,6.02593171 L13.8636878,6.02593171 C13.705639,6.02593171 13.5575415,6.15646829 13.5926634,6.35198049 L13.6195902,6.5076878 L13.926322,7.96115122 L13.2273951,7.96115122 C13.0822244,7.96115122 12.9639805,8.08407805 12.9639805,8.23802927 C12.9639805,8.38788293 13.081639,8.51022439 13.225639,8.51022439 L14.0422244,8.51022439 L14.4227122,10.309639 C14.4502244,10.4395902 14.5655415,10.5338341 14.6990049,10.5338341 L14.9834927,10.5338341 C15.1052488,10.5338341 15.2065171,10.506322 15.2843707,10.4524683 C15.3686634,10.3933463 15.4266146,10.2955902 15.4588098,10.1539317 L16.0716878,7.51393171 C16.0752,7.50046829 16.0945171,7.50046829 16.0974439,7.51393171 L16.236761,8.10924878 L16.7717854,10.3997854 C16.7793951,10.4337366 16.7975415,10.4630049 16.8215415,10.4858341 C17.1721756,10.3570537 17.6205659,10.1908098 17.6205659,10.1908098 C17.6205659,10.1908098 17.7862244,10.1357854 17.8301268,9.96193171 C17.8312976,9.95724878 17.8318829,9.95198049 17.8330537,9.94729756 L18.1380293,8.51139512 L18.9569561,8.51139512 C19.1021268,8.51139512 19.2203707,8.38905366 19.2203707,8.2374439 C19.2203707,8.08583415 19.1021268,7.96290732 18.9569561,7.96290732" id="Fill-12" fill="#FFFFFF"></path>
            <mask id="mask-21" fill="white">
                <use xlink:href="#path-20"></use>
            </mask>
            <g id="Clip-15"></g>
            <polygon id="Fill-14" fill="#254FFE" mask="url(#mask-21)" points="12.7761951 16.1929756 16.001561 16.1929756 16.001561 15.6087805 12.7761951 15.6087805"></polygon>
            <polygon id="Fill-16" fill="#254FFE" mask="url(#mask-21)" points="10.7635317 15.6389854 9.44294634 15.6389854 9.44294634 14.3184 8.85875122 14.3184 8.85875122 15.6389854 7.53758049 15.6389854 7.53758049 16.2231805 8.85875122 16.2231805 8.85875122 17.5437659 9.44294634 17.5437659 9.44294634 16.2231805 10.7635317 16.2231805"></polygon>
            <polygon id="Fill-17" fill="#254FFE" mask="url(#mask-21)" points="10.4977171 10.1271805 10.0844488 9.71449756 9.15079024 10.6487415 8.21713171 9.71449756 7.80327805 10.1271805 8.73752195 11.0614244 7.80327805 11.9950829 8.21713171 12.4077659 9.15079024 11.4746927 10.0844488 12.4077659 10.4977171 11.9950829 9.56347317 11.0614244"></polygon>
        </g>
        <g id="Group-6-Copy" transform="translate(50.000000, 400.000000)">
            <path d="M16.9923569,24 L7.00784271,24 C3.13755104,24 0,20.8626225 0,16.9924982 L0,6.63603852 C0,2.9709077 2.97108259,0 6.63598333,0 L16.9923569,0 C20.8626486,0 24,3.13717793 24,7.00750179 L24,16.9924982 C24,20.8626225 20.8626486,24 16.9923569,24" id="Fill-2" fill="#032F70"></path>
            <path d="M18.4752175,9.21450124 L14.8153208,9.21450124 C14.7629267,9.21450124 14.7202428,9.25578563 14.7202428,9.30646172 L14.727323,10.9840557 L14.7275253,10.9840557 L18.5700933,10.9766206 C18.8338842,10.9766206 19.0479109,11.1834339 19.0479109,11.4385753 L19.0479109,11.5305358 C19.0479109,11.836549 18.7912002,12.0848423 18.474813,12.0848423 L14.2393907,12.0848423 L12.5921135,12.771024 L12.5726933,17.6838661 L12.5773461,17.7368901 C12.5773461,18.0429033 12.3206354,18.2911966 12.0042482,18.2911966 L11.9089679,18.2911966 C11.6455815,18.2911966 11.4315548,18.0836007 11.4315548,17.8266984 L11.4313525,17.7394337 L11.4230585,12.8927249 C11.4230585,12.8692456 11.432364,12.8463534 11.4489521,12.8293309 L14.1501792,11.8052433 L14.1503815,11.8052433 C14.1505838,11.8050476 14.2525398,11.6923471 14.3330527,11.5154699 C14.3712862,11.4315315 14.4036532,11.3192223 14.3992027,11.2004564 L14.3992027,5.44646934 C14.3992027,4.16743598 13.3270464,3.13043478 12.0046528,3.13043478 L12.0042482,3.13043478 C10.6818546,3.13043478 9.6096982,4.16743598 9.6096982,5.44646934 L9.6096982,9.22134936 L9.62062205,9.233089 L9.60079727,9.22134936 L5.52498475,9.22134936 C4.20238885,9.22134936 3.13043478,10.2585462 3.13043478,11.5377752 C3.13043478,12.8168086 4.20218656,13.8538098 5.52458017,13.8538098 L9.19985125,13.8612449 C9.2524476,13.8612449 9.29492927,13.8199605 9.29492927,13.7692844 L9.28805129,12.0916904 L9.28784899,12.0916904 L5.42990674,12.0916904 C5.16591352,12.0916904 4.95188683,11.8846815 4.95188683,11.6295401 L4.95188683,11.5377752 C4.95188683,11.2317621 5.20859748,10.9834688 5.52498475,10.9834688 L10.4449687,10.9834688 L10.445171,10.9834688 L11.4076842,10.6046698 C11.4321617,10.5539937 11.4315548,5.44627368 11.4315548,5.44627368 C11.4315548,5.14045616 11.6878609,4.89255418 12.0042482,4.89255418 C12.3206354,4.89255418 12.5773461,5.14084748 12.5773461,5.44686066 L12.5773461,10.4076396 C12.5773461,10.4311189 12.5680406,10.4536198 12.5514525,10.4706423 L9.92810841,11.5043173 C9.87692811,11.5250573 9.85346205,11.53621 9.82574782,11.5735811 C9.7816478,11.6205397 9.7179253,11.7005649 9.67139776,11.814048 C9.59938122,11.9901426 9.60019039,12.2321747 9.60039269,12.2529147 L9.6096982,17.8278723 L9.6096982,17.8288506 C9.6096982,18.6394725 10.0602062,19.3501118 10.7320234,19.7386938 C10.8956789,19.8333935 11.0945336,19.8525682 11.2735635,19.7891742 C12.3384373,19.4111579 13.7231373,18.9108538 13.7231373,18.9108538 C13.7231373,18.9108538 14.11761,18.7803481 14.2964375,18.3931358 C14.348427,18.2808266 14.3848399,18.1499297 14.3848399,17.9906619 C14.3848399,17.9163109 14.3992027,13.846766 14.3992027,13.846766 L18.474813,13.846766 C19.7974089,13.846766 20.8695652,12.8097648 20.8695652,11.5305358 C20.8695652,10.2515024 19.7976111,9.21450124 18.4752175,9.21450124" id="Fill-4" fill="#FFFFFF"></path>
        </g>
        <g id="Group-31" transform="translate(100.000000, 400.000000)">
            <path d="M18,24 L6,24 C2.6862,24 0,21.3138 0,18 L0,6 C0,2.6862 2.6862,0 6,0 L18,0 C21.3138,0 24,2.6862 24,6 L24,18 C24,21.3138 21.3138,24 18,24" id="Fill-1" fill="#35D22C"></path>
            <path d="M18,24 L6,24 C2.6862,24 0,21.3138 0,18 L0,6 C0,2.6862 2.6862,0 6,0 L18,0 C21.3138,0 24,2.6862 24,6 L24,18 C24,21.3138 21.3138,24 18,24" id="Fill-3" fill="#35D22C"></path>
            <path d="M18,24 L6,24 C2.6862,24 0,21.3138 0,18 L0,6 C0,2.6862 2.6862,0 6,0 L18,0 C21.3138,0 24,2.6862 24,6 L24,18 C24,21.3138 21.3138,24 18,24" id="Fill-5" fill="#35D22C"></path>
            <path d="M10.78666,5.293 C10.59446,5.293 10.40546,5.3282 10.22486,5.3974 L3.70746,7.8992 C3.31646,8.0494 3.00706,8.3428 2.83666,8.7256 C2.66626,9.1082 2.65526,9.5344 2.80526,9.9256 L6.23826,18.8686 C6.47566,19.4874 7.07686,19.9032 7.73406,19.9032 C7.92066,19.9032 8.10326,19.8694 8.27686,19.8028 L11.98906,18.3778 L12.51526,18.1758 L12.58286,18.1498 L12.64046,18.1058 L12.64586,18.1018 C12.66466,18.088 12.68326,18.074 12.70146,18.0584 C13.12706,17.6964 14.86466,16.104 15.03106,15.9516 C15.29826,15.7294 15.67586,15.2212 15.46146,14.6626 L13.15966,8.666 L12.25126,6.2996 C12.02006,5.6976 11.43146,5.293 10.78666,5.293 M10.78666,5.7956 C11.21506,5.7956 11.61926,6.056 11.78186,6.4798 L12.69026,8.8462 L14.99206,14.8428 C15.13726,15.221 14.70166,15.5716 14.70166,15.5716 C14.70166,15.5716 12.81126,17.305 12.37506,17.676 C12.36206,17.6872 12.34846,17.6962 12.33506,17.7064 L11.80886,17.9084 L8.09666,19.3334 C7.97786,19.379 7.85526,19.4004 7.73406,19.4004 C7.29466,19.4004 6.87286,19.1192 6.70746,18.6886 L3.27466,9.7454 C3.06366,9.196 3.33826,8.5794 3.88766,8.3686 L10.40486,5.8668 C10.53066,5.8186 10.65966,5.7956 10.78666,5.7956" id="Fill-7" fill="#35D22C"></path>
            <path d="M10.40494,5.86676 L3.88774,8.36856 C3.33814,8.57936 3.06374,9.19596 3.27454,9.74536 L6.70754,18.68856 C6.91854,19.23796 7.54714,19.54436 8.09674,19.33336 L11.80894,17.90836 L12.33514,17.70636 C12.34834,17.69616 12.36194,17.68716 12.37514,17.67596 C12.81134,17.30496 14.70154,15.57156 14.70154,15.57156 C14.70154,15.57156 15.13734,15.22096 14.99214,14.84276 L12.69034,8.84616 L11.78194,6.47976 C11.57094,5.93036 10.95454,5.65576 10.40494,5.86676" id="Fill-9" fill="#FFFFFF"></path>
            <path d="M10.7873,5.85836 C10.6659,5.85836 10.5443,5.88076 10.4275,5.92556 L10.4275,5.92556 L3.9101,8.42716 C3.6601,8.52316 3.4623,8.71076 3.3533,8.95556 C3.2445,9.20036 3.2373,9.47276 3.3333,9.72296 L6.7661,18.66596 C6.9677,19.19076 7.5665,19.47016 8.0743,19.27476 L12.3115,17.64556 C12.3193,17.64016 12.3269,17.63456 12.3341,17.62836 C12.7645,17.26216 14.6403,15.54256 14.6591,15.52536 C14.6661,15.51936 15.0603,15.19576 14.9335,14.86516 L11.7233,6.50236 C11.6273,6.25216 11.4397,6.05456 11.1949,5.94556 C11.0645,5.88736 10.9259,5.85836 10.7873,5.85836 M7.7331,19.46376 C7.5695,19.46376 7.4047,19.42676 7.2483,19.35296 C6.9745,19.22376 6.7559,18.98996 6.6489,18.71096 L3.2161,9.76796 C3.1081,9.48656 3.1159,9.17976 3.2385,8.90436 C3.3611,8.62896 3.5837,8.41796 3.8653,8.30996 L10.3825,5.80816 C10.6639,5.70016 10.9705,5.70796 11.2459,5.83076 C11.5213,5.95336 11.7325,6.17596 11.8405,6.45736 L15.0507,14.82036 C15.2105,15.23636 14.7603,15.60496 14.7411,15.62056 C14.7251,15.63516 12.8479,17.35616 12.4157,17.72376 C12.4061,17.73216 12.3959,17.73976 12.3857,17.74716 L12.3577,17.76516 L8.1191,19.39216 C7.9945,19.43996 7.8643,19.46376 7.7331,19.46376" id="Fill-11" fill="#35D22C"></path>
            <path d="M13.22868,4.8241 C13.12568,4.8241 13.02188,4.8337 12.91988,4.8525 L5.29328,6.2661 C4.85028,6.3481 4.46568,6.5979 4.21048,6.9693 C3.95528,7.3407 3.85988,7.7891 3.94208,8.2321 L5.88168,18.6977 C6.03128,19.5047 6.75228,20.1133 7.55888,20.1133 C7.65768,20.1133 7.75728,20.1041 7.85468,20.0861 L12.19868,19.2809 L12.81448,19.1669 L12.88568,19.1537 L12.95028,19.1209 L12.95808,19.1171 C12.98028,19.1065 13.00208,19.0955 13.02408,19.0827 C13.56248,18.7733 15.78988,17.3815 15.99528,17.2531 C16.31888,17.0725 16.81528,16.6137 16.69988,15.9905 L15.39928,8.9731 L14.88608,6.2039 C14.73788,5.4043 14.04088,4.8241 13.22868,4.8241 M13.22868,5.3267 C13.78828,5.3267 14.28608,5.7253 14.39168,6.2955 L14.90488,9.0647 L16.20548,16.0821 C16.28748,16.5245 15.74068,16.8193 15.74068,16.8193 C15.74068,16.8193 13.32448,18.3303 12.77268,18.6473 C12.75628,18.6569 12.73948,18.6641 12.72288,18.6725 L12.10708,18.7867 L7.76308,19.5919 C7.69448,19.6045 7.62628,19.6107 7.55888,19.6107 C6.99268,19.6107 6.48248,19.1807 6.37588,18.6061 L4.43628,8.1405 C4.31708,7.4975 4.74168,6.8795 5.38488,6.7603 L13.01148,5.3469 C13.08448,5.3333 13.15708,5.3267 13.22868,5.3267" id="Fill-13" fill="#35D22C"></path>
            <path d="M13.01152,5.34684 L5.38492,6.76044 C4.74172,6.87964 4.31712,7.49744 4.43632,8.14064 L6.37592,18.60604 C6.49512,19.24904 7.11992,19.71104 7.76292,19.59184 L12.10712,18.78664 L12.72292,18.67264 C12.73952,18.66424 12.75632,18.65684 12.77272,18.64744 C13.32432,18.33044 15.74052,16.81944 15.74052,16.81944 C15.74052,16.81944 16.28752,16.52444 16.20552,16.08204 L14.90492,9.06464 L14.39172,6.29544 C14.27252,5.65244 13.65452,5.22764 13.01152,5.34684" id="Fill-15" fill="#FFFFFF"></path>
            <path d="M17.08538,4.27466 L7.72358,4.27466 C6.72178,4.27466 5.90678,5.08646 5.90678,6.08446 L5.90718,6.17266 C5.90678,6.17946 5.90678,6.18626 5.90678,6.19326 L5.92878,10.34646 L5.90678,18.39726 C5.90678,18.47006 5.91158,18.54246 5.92218,18.62646 C5.92358,18.63766 5.92498,18.64626 5.92618,18.65486 C5.93618,18.72466 5.95058,18.79626 5.96898,18.86626 C6.05678,19.20046 6.23558,19.50366 6.48578,19.74386 L6.49718,19.75526 L6.50298,19.76006 C6.53598,19.79106 6.56958,19.82046 6.60338,19.84766 L6.60838,19.85186 L6.61338,19.85566 C6.70578,19.92946 6.80558,19.99426 6.90978,20.04866 L6.93038,20.05906 C6.99258,20.09046 7.05498,20.11746 7.11698,20.14046 L7.12638,20.14406 C7.32378,20.21506 7.52338,20.25026 7.72358,20.25026 L13.43078,20.25026 L14.15018,20.25026 L14.22258,20.25026 L14.29198,20.22986 L14.30198,20.22706 C14.32698,20.22026 14.35158,20.21306 14.37678,20.20426 C15.02678,19.97686 17.74518,18.91166 17.98798,18.81646 C18.36438,18.69066 18.97678,18.31186 18.97078,17.65546 L18.97698,7.38206 L18.97698,6.14326 C18.97698,5.14786 18.09298,4.27466 17.08538,4.27466 M17.08538,4.77726 C17.81118,4.77726 18.47418,5.42146 18.47418,6.14326 L18.47418,7.38166 L18.46818,17.65786 C18.47418,18.13326 17.81778,18.34326 17.81778,18.34326 C17.81778,18.34326 14.87578,19.49706 14.20958,19.73026 C14.18978,19.73726 14.16998,19.74166 14.15018,19.74746 L13.43078,19.74746 L7.72358,19.74746 C7.57538,19.74746 7.43338,19.72026 7.30038,19.67246 C7.29778,19.67146 7.29518,19.67026 7.29258,19.66926 C7.24638,19.65246 7.20158,19.63286 7.15778,19.61086 C7.15258,19.60806 7.14718,19.60546 7.14198,19.60266 C7.06498,19.56266 6.99238,19.51526 6.92478,19.46106 C6.92298,19.45966 6.92138,19.45846 6.91978,19.45706 C6.89138,19.43406 6.86418,19.41006 6.83778,19.38486 C6.83758,19.38466 6.83758,19.38466 6.83738,19.38446 L6.83738,19.38446 C6.65518,19.21086 6.52058,18.98706 6.45498,18.73826 L6.45498,18.73826 C6.44178,18.68746 6.43118,18.63586 6.42398,18.58326 C6.42298,18.57686 6.42178,18.57046 6.42098,18.56386 C6.41418,18.50946 6.40938,18.45446 6.40938,18.39866 L6.40938,18.39866 L6.43138,10.34386 L6.40938,6.19326 C6.40938,6.19006 6.40978,6.18726 6.40978,6.18406 L6.40938,6.08446 C6.40938,5.36266 6.99778,4.77726 7.72358,4.77726 L17.08538,4.77726" id="Fill-17" fill="#35D22C"></path>
            <path d="M12.41304,9.63434 L14.45344,9.63434 C14.45384,9.63454 14.45384,9.63474 14.45424,9.63494 L14.45424,11.68714 C14.45424,12.76454 13.57264,13.64614 12.49524,13.64614 L12.43604,13.64614 C11.34604,13.64614 10.45424,12.75434 10.45424,11.66414 L10.45424,11.59314 C10.45424,10.51574 11.33564,9.63434 12.41304,9.63434" id="Fill-19" fill="#35D22C"></path>
            <path d="M15.94234,17.228 C15.93814,15.5592 14.37314,14.2074 12.44314,14.2074 C10.51034,14.2074 8.94374,15.5628 8.94374,17.2348 L8.95074,17.2348 L8.95074,19.4664 L15.94374,19.4664 L15.94374,17.228 L15.94234,17.228 Z" id="Fill-21" fill="#35D22C"></path>
            <path d="M18.4742,7.38174 L18.4742,6.14334 C18.4742,5.42134 17.8112,4.77734 17.0854,4.77734 L7.7236,4.77734 C6.9978,4.77734 6.4094,5.36254 6.4094,6.08454 L6.4098,6.18414 C6.4098,6.18714 6.4094,6.19014 6.4094,6.19314 L6.4314,10.34394 L6.4094,18.39854 L6.4094,18.39854 C6.4094,18.45454 6.4142,18.50934 6.421,18.56394 C6.4218,18.57034 6.423,18.57674 6.4238,18.58334 C6.4312,18.63594 6.4416,18.68754 6.455,18.73814 L6.455,18.73834 C6.5206,18.98714 6.6552,19.21094 6.8374,19.38454 L6.8374,19.38454 C6.8376,19.38454 6.8376,19.38474 6.8378,19.38474 C6.8642,19.40994 6.8914,19.43414 6.9198,19.45714 C6.9214,19.45834 6.923,19.45974 6.9248,19.46094 C6.9924,19.51514 7.065,19.56274 7.142,19.60274 C7.1472,19.60554 7.1526,19.60814 7.1578,19.61074 C7.2016,19.63274 7.2464,19.65234 7.2926,19.66934 C7.2952,19.67034 7.2978,19.67134 7.3004,19.67234 C7.4334,19.72014 7.5754,19.74754 7.7236,19.74754 L13.4308,19.74754 L14.1502,19.74754 C14.17,19.74174 14.1898,19.73734 14.2096,19.73014 C14.8758,19.49714 17.8178,18.34334 17.8178,18.34334 C17.8178,18.34334 18.4742,18.13334 18.4682,17.65794 L18.4742,7.38174 Z" id="Fill-23" fill="#FFFFFF"></path>
            <path d="M12.41304,7.13434 L14.45344,7.13434 C14.45384,7.13454 14.45384,7.13474 14.45424,7.13494 L14.45424,9.18714 C14.45424,10.26454 13.57264,11.14614 12.49524,11.14614 L12.43604,11.14614 C11.34604,11.14614 10.45424,10.25434 10.45424,9.16414 L10.45424,9.09314 C10.45424,8.01574 11.33564,7.13434 12.41304,7.13434" id="Fill-25" fill="#35D22C"></path>
            <path d="M15.94234,14.728 C15.93814,13.0592 14.37314,11.7074 12.44314,11.7074 C10.51034,11.7074 8.94374,13.0628 8.94374,14.7348 L8.95074,14.7348 L8.95074,16.9664 L15.94374,16.9664 L15.94374,14.728 L15.94234,14.728 Z" id="Fill-27" fill="#35D22C"></path>
            <path d="M8.67156,18.16172 C8.67156,18.54352 8.36216,18.85292 7.98036,18.85292 C7.59856,18.85292 7.28916,18.54352 7.28916,18.16172 C7.28916,17.77992 7.59856,17.47052 7.98036,17.47052 C8.36216,17.47052 8.67156,17.77992 8.67156,18.16172" id="Fill-29" fill="#35D22C"></path>
        </g>
        <g id="ic_ellipsis" transform="translate(302.000000, 306.000000)" fill="#333333">
            <circle id="Oval" cx="1" cy="1" r="1"></circle>
            <circle id="Oval-Copy" cx="5" cy="1" r="1"></circle>
            <circle id="Oval-Copy-2" cx="9" cy="1" r="1"></circle>
        </g>
        <g id="Group" transform="translate(400.000000, 150.000000)" opacity="0.5" stroke="#333333">
            <g id="foundation-/-ic_blank">
                <g id="Group" transform="translate(8.156411, 8.000000)" stroke-linecap="round">
                    <line x1="7.07106781" y1="0.499999999" x2="1.07106781" y2="0.499999999" id="Path"></line>
                    <line x1="7.07106781" y1="0.499999998" x2="7.07106781" y2="6.5" id="Path-2"></line>
                    <line x1="7.07106781" y1="0.499999999" x2="2.27373675e-13" y2="7.57106781" id="Path-3"></line>
                </g>
                <circle id="Oval" cx="12" cy="12" r="11.5"></circle>
            </g>
        </g>
        <g id="icons-/-home" transform="translate(453.000000, 152.000000)">
            <mask id="mask-23" fill="white">
                <use xlink:href="#path-22"></use>
            </mask>
            <use id="Combined-Shape" fill="#333333" fill-rule="nonzero" xlink:href="#path-22"></use>
            <rect id="Rectangle" fill="#333333" mask="url(#mask-23)" x="-0.714285671" y="-1.28571429" width="20.5714281" height="20.5714286"></rect>
        </g>
        <g id="Group-31" transform="translate(100.000000, 350.000000)">
            <path d="M30,40 L10,40 C4.477,40 0,35.523 0,30 L0,10 C0,4.477 4.477,0 10,0 L30,0 C35.523,0 40,4.477 40,10 L40,30 C40,35.523 35.523,40 30,40" id="Fill-1" fill="#35D22C"></path>
            <path d="M30,40 L10,40 C4.477,40 0,35.523 0,30 L0,10 C0,4.477 4.477,0 10,0 L30,0 C35.523,0 40,4.477 40,10 L40,30 C40,35.523 35.523,40 30,40" id="Fill-3" fill="#35D22C"></path>
            <path d="M30,40 L10,40 C4.477,40 0,35.523 0,30 L0,10 C0,4.477 4.477,0 10,0 L30,0 C35.523,0 40,4.477 40,10 L40,30 C40,35.523 35.523,40 30,40" id="Fill-5" fill="#35D22C"></path>
            <path d="M17.9777667,8.82166667 C17.6574333,8.82166667 17.3424333,8.88033333 17.0414333,8.99566667 L6.1791,13.1653333 C5.52743333,13.4156667 5.01176667,13.9046667 4.72776667,14.5426667 C4.44376667,15.1803333 4.42543333,15.8906667 4.67543333,16.5426667 L10.3971,31.4476667 C10.7927667,32.479 11.7947667,33.172 12.8901,33.172 C13.2011,33.172 13.5054333,33.1156667 13.7947667,33.0046667 L19.9817667,30.6296667 L20.8587667,30.293 L20.9714333,30.2496667 L21.0674333,30.1763333 L21.0764333,30.1696667 C21.1077667,30.1466667 21.1387667,30.1233333 21.1691,30.0973333 C21.8784333,29.494 24.7744333,26.84 25.0517667,26.586 C25.4971,26.2156667 26.1264333,25.3686667 25.7691,24.4376667 L21.9327667,14.4433333 L20.4187667,10.4993333 C20.0334333,9.496 19.0524333,8.82166667 17.9777667,8.82166667 M17.9777667,9.65933333 C18.6917667,9.65933333 19.3654333,10.0933333 19.6364333,10.7996667 L21.1504333,14.7436667 L24.9867667,24.738 C25.2287667,25.3683333 24.5027667,25.9526667 24.5027667,25.9526667 C24.5027667,25.9526667 21.3521,28.8416667 20.6251,29.46 C20.6034333,29.4786667 20.5807667,29.4936667 20.5584333,29.5106667 L19.6814333,29.8473333 L13.4944333,32.2223333 C13.2964333,32.2983333 13.0921,32.334 12.8901,32.334 C12.1577667,32.334 11.4547667,31.8653333 11.1791,31.1476667 L5.45776667,16.2423333 C5.1061,15.3266667 5.56376667,14.299 6.47943333,13.9476667 L17.3414333,9.778 C17.5511,9.69766667 17.7661,9.65933333 17.9777667,9.65933333" id="Fill-7" fill="#35D22C"></path>
            <path d="M17.3415667,9.77793333 L6.47956667,13.9476 C5.56356667,14.2989333 5.10623333,15.3266 5.45756667,16.2422667 L11.1792333,31.1476 C11.5309,32.0632667 12.5785667,32.5739333 13.4945667,32.2222667 L19.6815667,29.8472667 L20.5585667,29.5106 C20.5805667,29.4936 20.6032333,29.4786 20.6252333,29.4599333 C21.3522333,28.8416 24.5025667,25.9526 24.5025667,25.9526 C24.5025667,25.9526 25.2289,25.3682667 24.9869,24.7379333 L21.1505667,14.7436 L19.6365667,10.7996 C19.2849,9.88393333 18.2575667,9.42626667 17.3415667,9.77793333" id="Fill-9" fill="#FFFFFF"></path>
            <path d="M17.9788333,9.76393333 C17.7765,9.76393333 17.5738333,9.80126667 17.3791667,9.87593333 L17.3791667,9.87593333 L6.51683333,14.0452667 C6.10016667,14.2052667 5.7705,14.5179333 5.58883333,14.9259333 C5.4075,15.3339333 5.3955,15.7879333 5.5555,16.2049333 L11.2768333,31.1099333 C11.6128333,31.9846 12.6108333,32.4502667 13.4571667,32.1246 L20.5191667,29.4092667 C20.5321667,29.4002667 20.5448333,29.3909333 20.5568333,29.3806 C21.2741667,28.7702667 24.4005,25.9042667 24.4318333,25.8756 C24.4435,25.8656 25.1005,25.3262667 24.8891667,24.7752667 L19.5388333,10.8372667 C19.3788333,10.4202667 19.0661667,10.0909333 18.6581667,9.90926667 C18.4408333,9.81226667 18.2098333,9.76393333 17.9788333,9.76393333 M12.8885,32.4396 C12.6158333,32.4396 12.3411667,32.3779333 12.0805,32.2549333 C11.6241667,32.0396 11.2598333,31.6499333 11.0815,31.1849333 L5.36016667,16.2799333 C5.18016667,15.8109333 5.19316667,15.2996 5.3975,14.8406 C5.60183333,14.3816 5.97283333,14.0299333 6.44216667,13.8499333 L17.3041667,9.68026667 C17.7731667,9.50026667 18.2841667,9.51326667 18.7431667,9.71793333 C19.2021667,9.92226667 19.5541667,10.2932667 19.7341667,10.7622667 L25.0845,24.7006 C25.3508333,25.3939333 24.6005,26.0082667 24.5685,26.0342667 C24.5418333,26.0586 21.4131667,28.9269333 20.6928333,29.5396 C20.6768333,29.5536 20.6598333,29.5662667 20.6428333,29.5786 L20.5961667,29.6086 L13.5318333,32.3202667 C13.3241667,32.3999333 13.1071667,32.4396 12.8885,32.4396" id="Fill-11" fill="#35D22C"></path>
            <path d="M22.0478,8.04016667 C21.8761333,8.04016667 21.7031333,8.05616667 21.5331333,8.0875 L8.82213333,10.4435 C8.0838,10.5801667 7.4428,10.9965 7.01746667,11.6155 C6.59213333,12.2345 6.43313333,12.9818333 6.57013333,13.7201667 L9.8028,31.1628333 C10.0521333,32.5078333 11.2538,33.5221667 12.5981333,33.5221667 C12.7628,33.5221667 12.9288,33.5068333 13.0911333,33.4768333 L20.3311333,32.1348333 L21.3574667,31.9448333 L21.4761333,31.9228333 L21.5838,31.8681667 L21.5968,31.8618333 C21.6338,31.8441667 21.6701333,31.8258333 21.7068,31.8045 C22.6041333,31.2888333 26.3164667,28.9691667 26.6588,28.7551667 C27.1981333,28.4541667 28.0254667,27.6895 27.8331333,26.6508333 L25.6654667,14.9551667 L24.8101333,10.3398333 C24.5631333,9.00716667 23.4014667,8.04016667 22.0478,8.04016667 M22.0478,8.87783333 C22.9804667,8.87783333 23.8101333,9.54216667 23.9861333,10.4925 L24.8414667,15.1078333 L27.0091333,26.8035 C27.1458,27.5408333 26.2344667,28.0321667 26.2344667,28.0321667 C26.2344667,28.0321667 22.2074667,30.5505 21.2878,31.0788333 C21.2604667,31.0948333 21.2324667,31.1068333 21.2048,31.1208333 L20.1784667,31.3111667 L12.9384667,32.6531667 C12.8241333,32.6741667 12.7104667,32.6845 12.5981333,32.6845 C11.6544667,32.6845 10.8041333,31.9678333 10.6264667,31.0101667 L7.3938,13.5675 C7.19513333,12.4958333 7.9028,11.4658333 8.9748,11.2671667 L21.6858,8.9115 C21.8074667,8.88883333 21.9284667,8.87783333 22.0478,8.87783333" id="Fill-13" fill="#35D22C"></path>
            <path d="M21.6858667,8.9114 L8.97486667,11.2674 C7.90286667,11.4660667 7.1952,12.4957333 7.39386667,13.5677333 L10.6265333,31.0100667 C10.8252,32.0817333 11.8665333,32.8517333 12.9382,32.6530667 L20.1785333,31.3110667 L21.2048667,31.1210667 C21.2325333,31.1070667 21.2605333,31.0947333 21.2878667,31.0790667 C22.2072,30.5507333 26.2342,28.0324 26.2342,28.0324 C26.2342,28.0324 27.1458667,27.5407333 27.0092,26.8034 L24.8415333,15.1077333 L23.9862,10.4924 C23.7875333,9.42073333 22.7575333,8.71273333 21.6858667,8.9114" id="Fill-15" fill="#FFFFFF"></path>
            <path d="M28.4756333,7.12443333 L12.8726333,7.12443333 C11.2029667,7.12443333 9.84463333,8.47743333 9.84463333,10.1407667 L9.8453,10.2877667 C9.84463333,10.2991 9.84463333,10.3104333 9.84463333,10.3221 L9.8813,17.2441 L9.84463333,30.6621 C9.84463333,30.7834333 9.85263333,30.9041 9.8703,31.0441 C9.87263333,31.0627667 9.87496667,31.0771 9.87696667,31.0914333 C9.89363333,31.2077667 9.91763333,31.3271 9.9483,31.4437667 C10.0946333,32.0007667 10.3926333,32.5061 10.8096333,32.9064333 L10.8286333,32.9254333 L10.8383,32.9334333 C10.8933,32.9851 10.9493,33.0341 11.0056333,33.0794333 L11.0139667,33.0864333 L11.0223,33.0927667 C11.1763,33.2157667 11.3426333,33.3237667 11.5163,33.4144333 L11.5506333,33.4317667 C11.6543,33.4841 11.7583,33.5291 11.8616333,33.5674333 L11.8773,33.5734333 C12.2063,33.6917667 12.5389667,33.7504333 12.8726333,33.7504333 L22.3846333,33.7504333 L23.5836333,33.7504333 L23.7043,33.7504333 L23.8199667,33.7164333 L23.8366333,33.7117667 C23.8783,33.7004333 23.9193,33.6884333 23.9613,33.6737667 C25.0446333,33.2947667 29.5753,31.5194333 29.9799667,31.3607667 C30.6073,31.1511 31.6279667,30.5197667 31.6179667,29.4257667 L31.6283,12.3034333 L31.6283,10.2387667 C31.6283,8.57976667 30.1549667,7.12443333 28.4756333,7.12443333 M28.4756333,7.9621 C29.6853,7.9621 30.7903,9.03576667 30.7903,10.2387667 L30.7903,12.3027667 L30.7803,29.4297667 C30.7903,30.2221 29.6963,30.5721 29.6963,30.5721 C29.6963,30.5721 24.7929667,32.4951 23.6826333,32.8837667 C23.6496333,32.8954333 23.6166333,32.9027667 23.5836333,32.9124333 L22.3846333,32.9124333 L12.8726333,32.9124333 C12.6256333,32.9124333 12.3889667,32.8671 12.1673,32.7874333 C12.1629667,32.7857667 12.1586333,32.7837667 12.1543,32.7821 C12.0773,32.7541 12.0026333,32.7214333 11.9296333,32.6847667 C11.9209667,32.6801 11.9119667,32.6757667 11.9033,32.6711 C11.7749667,32.6044333 11.6539667,32.5254333 11.5413,32.4351 C11.5383,32.4327667 11.5356333,32.4307667 11.5329667,32.4284333 C11.4856333,32.3901 11.4403,32.3501 11.3963,32.3081 C11.3959667,32.3077667 11.3959667,32.3077667 11.3956333,32.3074333 L11.3956333,32.3074333 C11.0919667,32.0181 10.8676333,31.6451 10.7583,31.2304333 L10.7583,31.2304333 C10.7363,31.1457667 10.7186333,31.0597667 10.7066333,30.9721 C10.7049667,30.9614333 10.7029667,30.9507667 10.7016333,30.9397667 C10.6903,30.8491 10.6823,30.7574333 10.6823,30.6644333 L10.6823,30.6644333 L10.7189667,17.2397667 L10.6823,10.3221 C10.6823,10.3167667 10.6829667,10.3121 10.6829667,10.3067667 L10.6823,10.1407667 C10.6823,8.93776667 11.6629667,7.9621 12.8726333,7.9621 L28.4756333,7.9621" id="Fill-17" fill="#35D22C"></path>
            <path d="M20.6884,16.0572333 L24.0890667,16.0572333 C24.0897333,16.0575667 24.0897333,16.0579 24.0904,16.0582333 L24.0904,19.4785667 C24.0904,21.2742333 22.6210667,22.7435667 20.8254,22.7435667 L20.7267333,22.7435667 C18.9100667,22.7435667 17.4237333,21.2572333 17.4237333,19.4402333 L17.4237333,19.3219 C17.4237333,17.5262333 18.8927333,16.0572333 20.6884,16.0572333" id="Fill-19" fill="#35D22C"></path>
            <path d="M26.5705667,28.7133333 C26.5635667,25.932 23.9552333,23.679 20.7385667,23.679 C17.5172333,23.679 14.9062333,25.938 14.9062333,28.7246667 L14.9179,28.7246667 L14.9179,32.444 L26.5729,32.444 L26.5729,28.7133333 L26.5705667,28.7133333 Z" id="Fill-21" fill="#35D22C"></path>
            <path d="M30.7903333,12.3029 L30.7903333,10.2389 C30.7903333,9.03556667 29.6853333,7.96223333 28.4756667,7.96223333 L12.8726667,7.96223333 C11.663,7.96223333 10.6823333,8.93756667 10.6823333,10.1409 L10.683,10.3069 C10.683,10.3119 10.6823333,10.3169 10.6823333,10.3219 L10.719,17.2399 L10.6823333,30.6642333 L10.6823333,30.6642333 C10.6823333,30.7575667 10.6903333,30.8489 10.7016667,30.9399 C10.703,30.9505667 10.705,30.9612333 10.7063333,30.9722333 C10.7186667,31.0599 10.736,31.1459 10.7583333,31.2302333 L10.7583333,31.2305667 C10.8676667,31.6452333 11.092,32.0182333 11.3956667,32.3075667 L11.3956667,32.3075667 C11.396,32.3075667 11.396,32.3079 11.3963333,32.3079 C11.4403333,32.3499 11.4856667,32.3902333 11.533,32.4285667 C11.5356667,32.4305667 11.5383333,32.4329 11.5413333,32.4349 C11.654,32.5252333 11.775,32.6045667 11.9033333,32.6712333 C11.912,32.6759 11.921,32.6802333 11.9296667,32.6845667 C12.0026667,32.7212333 12.0773333,32.7539 12.1543333,32.7822333 C12.1586667,32.7839 12.163,32.7855667 12.1673333,32.7872333 C12.389,32.8669 12.6256667,32.9125667 12.8726667,32.9125667 L22.3846667,32.9125667 L23.5836667,32.9125667 C23.6166667,32.9029 23.6496667,32.8955667 23.6826667,32.8835667 C24.793,32.4952333 29.6963333,30.5722333 29.6963333,30.5722333 C29.6963333,30.5722333 30.7903333,30.2222333 30.7803333,29.4299 L30.7903333,12.3029 Z" id="Fill-23" fill="#FFFFFF"></path>
            <path d="M20.6884,11.8905667 L24.0890667,11.8905667 C24.0897333,11.8909 24.0897333,11.8912333 24.0904,11.8915667 L24.0904,15.3119 C24.0904,17.1075667 22.6210667,18.5769 20.8254,18.5769 L20.7267333,18.5769 C18.9100667,18.5769 17.4237333,17.0905667 17.4237333,15.2735667 L17.4237333,15.1552333 C17.4237333,13.3595667 18.8927333,11.8905667 20.6884,11.8905667" id="Fill-25" fill="#35D22C"></path>
            <path d="M26.5705667,24.5466667 C26.5635667,21.7653333 23.9552333,19.5123333 20.7385667,19.5123333 C17.5172333,19.5123333 14.9062333,21.7713333 14.9062333,24.558 L14.9179,24.558 L14.9179,28.2773333 L26.5729,28.2773333 L26.5729,24.5466667 L26.5705667,24.5466667 Z" id="Fill-27" fill="#35D22C"></path>
            <path d="M14.4526,30.2695333 C14.4526,30.9058667 13.9369333,31.4215333 13.3006,31.4215333 C12.6642667,31.4215333 12.1486,30.9058667 12.1486,30.2695333 C12.1486,29.6332 12.6642667,29.1175333 13.3006,29.1175333 C13.9369333,29.1175333 14.4526,29.6332 14.4526,30.2695333" id="Fill-29" fill="#35D22C"></path>
        </g>
    </g>
</svg>