<svg width="107" height="67" viewBox="0 0 107 67" fill="none" xmlns="http://www.w3.org/2000/svg">
<path d="M1.29661 1.27311V65.7269" stroke="#333333" stroke-linecap="round" stroke-linejoin="round"/>
<path d="M105.703 1.27311V65.7269" stroke="#333333" stroke-linecap="round" stroke-linejoin="round"/>
<path d="M8.33144 1.22686L27.4821 21.6447" stroke="#333333" stroke-linecap="round" stroke-linejoin="round"/>
<path d="M21.7627 41.5505L31.8474 51.6881" stroke="#333333" stroke-linecap="round" stroke-linejoin="round"/>
<path d="M73.9661 41.5505L84.0508 51.6881" stroke="#333333" stroke-linecap="round" stroke-linejoin="round"/>
<path d="M59.822 59.1422C59.822 62.656 56.9891 65.5 53.5 65.5C50.0109 65.5 47.178 62.656 47.178 59.1422C47.178 55.6284 50.0109 52.7844 53.5 52.7844C56.9891 52.7844 59.822 55.6284 59.822 59.1422Z" stroke="#333333" stroke-linecap="round" stroke-linejoin="round"/>
<path d="M31.8474 41.5505L21.7627 51.6881" stroke="#333333" stroke-linecap="round" stroke-linejoin="round"/>
<path d="M84.0508 41.5505L73.966 51.6881" stroke="#333333" stroke-linecap="round" stroke-linejoin="round"/>
<path d="M98.0753 1.22686L78.9246 21.6447" stroke="#333333" stroke-linecap="round" stroke-linejoin="round"/>
<path d="M32.1765 27.5367H73.637" stroke="#333333" stroke-linecap="round" stroke-linejoin="round"/>
</svg>
